<svg width="25" height="25" viewBox="0 0 25 25" fill="none" xmlns="http://www.w3.org/2000/svg">
<path d="M12.5027 6.81796C9.10449 6.81796 6.36351 9.55955 6.36351 12.9585C6.36351 16.3574 9.10449 19.099 12.5027 19.099C15.9008 19.099 18.6418 16.3574 18.6418 12.9585C18.6418 9.55955 15.9008 6.81796 12.5027 6.81796ZM12.5027 16.9506C10.3067 16.9506 8.51141 15.1603 8.51141 12.9585C8.51141 10.7567 10.3013 8.96634 12.5027 8.96634C14.704 8.96634 16.4939 10.7567 16.4939 12.9585C16.4939 15.1603 14.6986 16.9506 12.5027 16.9506ZM20.3249 6.56678C20.3249 7.36307 19.6837 7.99904 18.8929 7.99904C18.0968 7.99904 17.461 7.35773 17.461 6.56678C17.461 5.77584 18.1022 5.13453 18.8929 5.13453C19.6837 5.13453 20.3249 5.77584 20.3249 6.56678ZM24.3909 8.02041C24.3001 6.10184 23.862 4.40237 22.4567 3.00218C21.0569 1.60199 19.3578 1.16377 17.4396 1.06757C15.4627 0.955341 9.53727 0.955341 7.56035 1.06757C5.64754 1.15842 3.94845 1.59665 2.54323 2.99684C1.13802 4.39703 0.70523 6.09649 0.609055 8.01507C0.496851 9.99244 0.496851 15.9192 0.609055 17.8966C0.699887 19.8151 1.13802 21.5146 2.54323 22.9148C3.94845 24.315 5.6422 24.7532 7.56035 24.8494C9.53727 24.9616 15.4627 24.9616 17.4396 24.8494C19.3578 24.7585 21.0569 24.3203 22.4567 22.9148C23.8566 21.5146 24.2947 19.8151 24.3909 17.8966C24.5031 15.9192 24.5031 9.99778 24.3909 8.02041ZM21.8369 20.0182C21.4202 21.0657 20.6134 21.8727 19.5608 22.2949C17.9846 22.9201 14.2445 22.7758 12.5027 22.7758C10.7608 22.7758 7.01536 22.9148 5.4445 22.2949C4.39727 21.878 3.59047 21.071 3.16837 20.0182C2.54323 18.4417 2.6875 14.7007 2.6875 12.9585C2.6875 11.2163 2.54858 7.46996 3.16837 5.89875C3.58513 4.85128 4.39193 4.04431 5.4445 3.62211C7.0207 2.99684 10.7608 3.14113 12.5027 3.14113C14.2445 3.14113 17.99 3.00218 19.5608 3.62211C20.608 4.03896 21.4148 4.84594 21.8369 5.89875C22.4621 7.4753 22.3178 11.2163 22.3178 12.9585C22.3178 14.7007 22.4621 18.447 21.8369 20.0182Z" fill="#575DFB"/>
</svg>
