<svg width="22" height="22" viewBox="0 0 22 22" fill="none" xmlns="http://www.w3.org/2000/svg">
<g clip-path="url(#clip0_103_2982)">
<path fill-rule="evenodd" clip-rule="evenodd" d="M21.2415 21.2692H17.1611V14.1295C17.1611 12.1709 16.2971 11.0781 14.7475 11.0781C13.0613 11.0781 12.0606 12.2168 12.0606 14.1295V21.2692H7.98018V8.00788H12.0606V9.49918C12.0606 9.49918 13.3408 7.25277 16.2256 7.25277C19.1115 7.25277 21.2415 9.01381 21.2415 12.6576V21.2692ZM3.33056 5.88699C1.95445 5.88699 0.839478 4.76291 0.839478 3.37659C0.839478 1.9913 1.95445 0.867188 3.33056 0.867188C4.70566 0.867188 5.82062 1.9913 5.82062 3.37659C5.82164 4.76291 4.70566 5.88699 3.33056 5.88699ZM0.839478 21.2692H5.93998V8.00788H0.839478V21.2692Z" fill="#575DFB"/>
</g>
<defs>
<clipPath id="clip0_103_2982">
<rect width="20.402" height="20.402" fill="white" transform="translate(0.840576 0.870117)"/>
</clipPath>
</defs>
</svg>
