<svg width="25" height="24" viewBox="0 0 25 24" fill="none" xmlns="http://www.w3.org/2000/svg">
<path d="M24.6503 18.5212C24.4066 19.0899 23.3762 19.5077 21.4994 19.7991C21.4029 19.9294 21.3228 20.4861 21.195 20.9197C21.119 21.1801 20.932 21.3346 20.6277 21.3346L20.6138 21.3343C20.1743 21.3343 19.7155 21.1321 18.7964 21.1321C17.5558 21.1321 17.1282 21.4148 16.165 22.0952C15.1438 22.8173 14.1643 23.4407 12.7022 23.3768C11.2219 23.486 9.98794 22.5859 9.29348 22.0949C8.32453 21.41 7.8982 21.1322 6.66267 21.1322C5.78025 21.1322 5.22491 21.353 4.84527 21.353C4.46763 21.353 4.32075 21.1227 4.2642 20.9301C4.13776 20.5002 4.05819 19.9355 3.95907 19.8013C2.99176 19.6512 0.810475 19.2707 0.754903 18.2974C0.748167 18.1751 0.786823 18.0547 0.863455 17.9591C0.940087 17.8635 1.0493 17.7997 1.17015 17.7797C4.42506 17.2438 5.89112 13.9018 5.95207 13.7599C5.95553 13.7517 5.95932 13.7438 5.96315 13.7358C6.13684 13.3832 6.17571 13.088 6.07837 12.8586C5.84214 12.3021 4.82136 12.1025 4.3919 11.9326C3.28257 11.4945 3.12821 10.991 3.19383 10.646C3.30783 10.0456 4.21007 9.67607 4.73758 9.92315C5.15479 10.1187 5.52546 10.2177 5.83905 10.2177C6.07397 10.2177 6.22319 10.1614 6.30496 10.1162C6.20939 8.43516 5.97279 6.03295 6.57098 4.69142C8.1508 1.14952 11.4993 0.87428 12.4873 0.87428C12.5314 0.87428 12.9149 0.870117 12.9602 0.870117C15.3995 0.870117 17.7434 2.12282 18.888 4.68917C19.4856 6.02935 19.2504 8.42164 19.1544 10.1158C19.2284 10.1566 19.3582 10.2066 19.5566 10.2158C19.8558 10.2025 20.2028 10.1041 20.5889 9.92315C20.8736 9.79002 21.2628 9.80803 21.5469 9.92586L21.5483 9.92633C21.9916 10.0847 22.2705 10.4042 22.2775 10.7622C22.2861 11.2182 21.8789 11.612 21.067 11.9325C20.9679 11.9716 20.8474 12.0099 20.7193 12.0506C20.261 12.1959 19.5685 12.4157 19.3807 12.8585C19.2834 13.0879 19.3219 13.383 19.4957 13.7355C19.4998 13.7434 19.5035 13.7515 19.5069 13.7596C19.5678 13.9013 21.0326 17.2427 24.289 17.7794C24.5896 17.8289 24.8112 18.1479 24.6503 18.5212Z" fill="#575DFB"/>
</svg>
