<svg width="22" height="25" viewBox="0 0 22 25" fill="none" xmlns="http://www.w3.org/2000/svg">
<path d="M11.6884 1.00337C12.9959 0.983399 14.2938 0.993782 15.591 0.983398C15.6341 2.60558 16.2922 4.06563 17.3393 5.14708L17.3377 5.14548C18.4647 6.16065 19.9311 6.81879 21.5477 6.9306L21.5701 6.9322V10.9545C20.043 10.9162 18.6069 10.5639 17.3122 9.95852L17.3777 9.98568C16.7515 9.68456 16.2219 9.37546 15.7187 9.03042L15.7603 9.05757C15.7507 11.9721 15.7699 14.8866 15.7403 17.7907C15.658 19.2707 15.166 20.6205 14.3769 21.7475L14.3929 21.7227C13.0734 23.6125 10.9361 24.8529 8.50558 24.9264H8.4944C8.39616 24.9312 8.28034 24.9336 8.16373 24.9336C6.78196 24.9336 5.49044 24.5486 4.38982 23.8801L4.42177 23.8984C2.4186 22.6932 1.03683 20.6309 0.781241 18.2324L0.778046 18.1996C0.758079 17.7004 0.748494 17.2012 0.768462 16.7124C1.15983 12.8954 4.35787 9.94255 8.2452 9.94255C8.6821 9.94255 9.11021 9.98009 9.52633 10.0512L9.48161 10.0448C9.50157 11.5216 9.44167 12.9992 9.44167 14.476C9.10382 14.3538 8.71404 14.2827 8.3075 14.2827C6.81551 14.2827 5.54635 15.2364 5.07671 16.5679L5.06952 16.5918C4.9633 16.9329 4.90179 17.325 4.90179 17.7308C4.90179 17.8953 4.91218 18.0583 4.93135 18.218L4.92975 18.1988C5.19492 19.833 6.59586 21.0662 8.28514 21.0662C8.33386 21.0662 8.38178 21.0654 8.4297 21.063H8.42251C9.59103 21.0279 10.6054 20.3993 11.1789 19.4704L11.1869 19.456C11.4001 19.1589 11.5463 18.7995 11.595 18.4089L11.5958 18.3977C11.6956 16.611 11.6557 14.8347 11.6653 13.0479C11.6749 9.02563 11.6557 5.0129 11.6853 1.00097L11.6884 1.00337Z" fill="#575DFB"/>
</svg>
