<svg width="69" height="77" viewBox="0 0 69 77" fill="none" xmlns="http://www.w3.org/2000/svg">
<path d="M3 30.0212C3 28.0909 3 27.1258 3.13413 26.3232C3.68494 23.0274 5.84964 20.451 8.61879 19.7954C9.29312 19.6357 10.104 19.6357 11.7258 19.6357H34.4129H57.1C58.7219 19.6357 59.5327 19.6357 60.2071 19.7954C62.9763 20.451 65.141 23.0274 65.6917 26.3232C65.8258 27.1258 65.8258 28.0909 65.8258 30.0212C65.8258 31.9515 65.8258 32.9166 65.6917 33.7192C65.141 37.0151 62.9763 39.5916 60.2071 40.2471C59.5327 40.4066 58.7219 40.4066 57.1 40.4066H34.4129H11.7258C10.104 40.4066 9.29312 40.4066 8.61879 40.2471C5.84964 39.5916 3.68494 37.0151 3.13413 33.7192C3 32.9166 3 31.9515 3 30.0212Z" stroke="#575DFB" stroke-width="5" stroke-linejoin="round"/>
<path d="M6.48877 40.4062V57.0229C6.48877 64.856 6.48877 68.7726 8.53337 71.2061C10.5779 73.6396 13.8686 73.6396 20.4501 73.6396H23.9404H44.8823H48.3726C54.954 73.6396 58.2446 73.6396 60.2893 71.2061C62.3339 68.7726 62.3339 64.856 62.3339 57.0229V40.4062" stroke="#575DFB" stroke-width="5" stroke-linecap="round" stroke-linejoin="round"/>
<path d="M34.4143 19.6357V73.64" stroke="#575DFB" stroke-width="5" stroke-linecap="round" stroke-linejoin="round"/>
<path d="M32.2334 16.3926L25.3247 6.1141C22.7256 2.24735 17.8733 1.93546 14.9313 5.43697C10.5338 10.6709 13.6346 19.6365 19.8537 19.6365H30.9235C32.3301 19.6365 33.1123 17.6999 32.2334 16.3926Z" stroke="#575DFB" stroke-width="5" stroke-linecap="round" stroke-linejoin="round"/>
<path d="M36.5915 16.3926L43.5003 6.1141C46.0995 2.24735 50.9517 1.93546 53.8937 5.43697C58.2912 10.6709 55.1904 19.6365 48.9713 19.6365H37.9014C36.4948 19.6365 35.7127 17.6999 36.5915 16.3926Z" stroke="#575DFB" stroke-width="5" stroke-linecap="round" stroke-linejoin="round"/>
</svg>
