<?xml version="1.0" encoding="UTF-8"?><svg id="Calque_1" xmlns="http://www.w3.org/2000/svg" xmlns:xlink="http://www.w3.org/1999/xlink" viewBox="0 0 2300 2300"><defs><style>.cls-1{fill:#5384e6;filter:url(#drop-shadow-1);stroke-width:0px;}</style><filter id="drop-shadow-1" filterUnits="userSpaceOnUse"><feOffset dx="86.82" dy="115.7"/><feGaussianBlur result="blur" stdDeviation="86.82"/><feFlood flood-color="#1d1d1b" flood-opacity=".75"/><feComposite in2="blur" operator="in"/><feComposite in="SourceGraphic"/></filter></defs><path class="cls-1" d="M555.99,1149.97c-.06-6.95,79.57-9.17,212.64-33.59,98.57-18.08,210.83-48.74,280.35-140.23,54.76-72.06,72.81-171.99,89.41-264.01,17.29-95.88,25.51-194.52,31.28-292.18.78-13.14,1.95,25.84,2.97,38.11,4.34,52.25,9.15,96.51,13.27,130.82,7.91,65.88,19.04,143.05,39.97,230.55,8.53,35.67,15.66,60.39,28.31,88.67,24.75,55.35,54.84,89.03,61.23,96.04,44.95,49.27,92.42,66.65,145.29,85.25,31.78,11.18,53.76,15.69,148.23,31.53,88.96,14.91,184.47,24.89,184.25,27.95-.06.88-8.06.72-13.15.68-23.93-.18-43.68,1.86-107.67,12.66-80.39,13.56-120.59,20.34-144.03,26.25-67.6,17.02-104.62,26.69-149.54,55.26-15.49,9.85-51.25,32.97-83.24,71.57-32.83,39.62-59.5,92.9-89.05,250.98-12.26,65.62-36.79,332.04-38.44,331.84-.08,0,1.05-11.64,1.37-26.43.64-29.46-2.38-51.68-3.65-61.12-5.51-41.21-8.91-82.83-15.23-123.88-20.17-130.93-12.14-119.24-22.84-168.92-13.84-64.25-29.88-138.67-81.86-202.71-37.84-46.62-78.21-67.37-118.03-87.84-24.43-12.56-65.84-31.07-167.52-49.55-124.2-22.57-204.27-20.72-204.32-27.69Z"/></svg>