<svg width="67" height="99" viewBox="0 0 67 99" fill="none" xmlns="http://www.w3.org/2000/svg">
<path d="M62.525 50.9331L62.52 50.9392L31.4721 88.9104L31.4638 88.9206L27.7468 93.5155C26.6121 94.9159 25.6499 95.707 24.9427 96.0841C24.5995 96.2672 24.3654 96.3265 24.2353 96.3426C24.1722 96.3503 24.1337 96.3481 24.115 96.3459C24.0971 96.3438 24.0881 96.3408 24.0826 96.3386C24.0799 96.3375 24.0173 96.3146 23.908 96.1874C23.7917 96.052 23.6311 95.8062 23.4702 95.3923C23.1418 94.5471 22.8934 93.2094 22.8934 91.2923V55.7192V53.2192H20.3934H6.26386C3.36 53.2192 2.69143 52.2915 2.58088 52.0221C2.42206 51.6351 2.33287 50.2932 4.29003 47.915L4.29502 47.9089L35.3429 9.93762L35.3429 9.93764L35.3512 9.92743L39.0682 5.33246C40.2029 3.93208 41.1651 3.14096 41.8723 2.76388C42.2155 2.58084 42.4496 2.52153 42.5798 2.50544C42.6428 2.49765 42.6813 2.49988 42.7001 2.50208C42.7179 2.50418 42.7269 2.50724 42.7325 2.50944L42.7327 2.50952C42.7373 2.51132 42.7996 2.5355 42.907 2.66063C43.0233 2.79602 43.184 3.04185 43.3448 3.45568C43.6732 4.30092 43.9216 5.63859 43.9216 7.55573V43.1288V45.6288H46.4216H60.5512H60.5895L60.6279 45.6276C63.4798 45.54 64.121 46.4714 64.2293 46.7392C64.404 47.1709 64.4654 48.5752 62.525 50.9331Z" stroke="#575DFB" stroke-width="5"/>
</svg>
