<svg width="818" height="244" viewBox="0 0 818 244" fill="none" xmlns="http://www.w3.org/2000/svg">
<path d="M498.336 88.5291V151.609C498.336 193.773 473.847 222.631 431.986 222.631H416.483C374.623 222.631 350.133 193.773 350.133 151.609V88.5291C350.133 75.5964 360.617 65.1123 373.55 65.1123C386.483 65.1123 396.967 75.5964 396.967 88.5291V143.253C396.967 164.333 405.652 179.837 424.235 179.837C442.817 179.837 451.503 164.333 451.503 143.253V88.5291C451.503 75.5964 461.987 65.1123 474.919 65.1123C487.852 65.1123 498.336 75.5964 498.336 88.5291ZM520.393 23.4036V196.73C520.393 209.656 530.871 220.133 543.797 220.133C556.723 220.133 567.201 209.656 567.201 196.73V23.4036C567.201 10.4775 556.723 7.79067e-07 543.797 7.79067e-07C530.871 -0.00329922 520.393 10.4775 520.393 23.4036ZM698.745 159.123C691.05 159.123 684.813 165.36 684.813 173.055V234.102C684.813 239.24 688.977 243.401 694.112 243.401H694.119C699.257 243.401 703.418 239.237 703.418 234.102V217.034C706.989 219.995 711.922 221.72 716.974 221.72C735.21 221.72 746.79 206.811 746.79 189.925C746.79 173.049 735.21 158.139 716.974 158.139C711.922 158.139 706.992 159.743 703.418 162.693V159.123H698.745ZM713.889 204.716C709.454 204.716 706.002 202.99 703.418 199.538V180.193C705.88 176.873 709.332 175.148 713.889 175.148C722.759 175.148 728.066 181.8 728.066 189.928C728.066 198.063 722.756 204.716 713.889 204.716ZM769.359 159.123C761.663 159.123 755.426 165.36 755.426 173.055V234.102C755.426 239.24 759.591 243.401 764.725 243.401C769.864 243.401 774.025 239.237 774.025 234.102V217.034C777.595 219.995 782.532 221.72 787.581 221.72C805.824 221.72 817.4 206.811 817.4 189.925C817.4 173.049 805.82 158.139 787.581 158.139C782.536 158.139 777.599 159.743 774.025 162.693V159.123H769.359ZM784.499 204.716C780.064 204.716 776.612 202.99 774.025 199.538V180.193C776.493 176.873 779.945 175.148 784.499 175.148C793.369 175.148 798.676 181.8 798.676 189.928C798.676 198.063 793.369 204.716 784.499 204.716ZM280.279 170.125C288.489 170.125 296.122 165.898 300.481 158.938L326.37 117.592C340.669 94.7562 324.251 65.109 297.31 65.109H212.17C200.346 65.109 190.763 74.6922 190.763 86.5161C190.763 98.34 200.346 107.923 212.17 107.923H265.719C270.28 107.923 273.055 112.943 270.633 116.807L260.086 133.624C250.13 149.5 261.541 170.125 280.279 170.125ZM225.149 117.619C216.939 117.619 209.306 121.846 204.947 128.806L179.058 170.151C164.759 192.987 181.177 222.635 208.118 222.635H293.258C305.082 222.635 314.665 213.051 314.665 201.227C314.665 189.404 305.082 179.82 293.258 179.82H239.712C235.151 179.82 232.376 174.801 234.798 170.937L245.345 154.12C255.298 138.24 243.886 117.619 225.149 117.619ZM676.269 188.291V207.441C676.269 215.335 669.87 221.73 661.98 221.73H657.667V217.166C654.09 220.127 649.163 221.73 644.11 221.73C625.868 221.73 614.292 206.811 614.292 189.935C614.292 173.049 625.871 159.133 644.11 159.133H647.107C663.214 159.133 676.269 172.187 676.269 188.291ZM657.594 180.833C655.01 177.382 651.559 175.656 647.123 175.656C638.253 175.656 632.947 182.309 632.947 190.446C632.947 198.574 638.253 205.227 647.123 205.227C651.677 205.227 655.129 203.501 657.594 200.181V180.833ZM155.06 138.069V185.978C155.06 205.725 139.052 221.73 119.308 221.73H108.521V210.309C99.5709 217.714 87.2454 221.73 74.6064 221.73C28.9674 221.73 0 184.401 0 142.177C0 99.9273 28.9707 65.109 74.6064 65.109H82.1073C122.397 65.1123 155.06 97.7757 155.06 138.069ZM108.336 119.407C101.871 110.771 93.2349 106.455 82.1403 106.455C59.9478 106.455 46.6686 123.097 46.6686 143.458C46.6686 163.792 59.9478 180.434 82.1403 180.434C93.5385 180.434 102.171 176.118 108.336 167.808V119.407Z" fill="white"/>
</svg>
