<svg width="52" height="52" viewBox="0 0 52 52" fill="none" xmlns="http://www.w3.org/2000/svg">
<path d="M0 8.38709C0 3.75503 3.75503 0 8.3871 0H43.6129C48.245 0 52 3.75503 52 8.3871V43.6129C52 48.245 48.245 52 43.6129 52H8.38709C3.75503 52 0 48.245 0 43.6129V8.38709Z" fill="#00B59F"/>
<g clip-path="url(#clip0_480_1839)">
<path d="M23.0653 31.4C21.3708 32.8798 19.2911 33.9161 16.9322 33.9161C12.6768 33.9161 9.22656 30.5351 9.22656 26.3677C9.22656 22.2004 12.6768 18.8193 16.9322 18.8193C23.0653 18.8193 26.8395 26.3677 26.8395 26.3677C26.8395 26.3677 30.6137 33.9161 36.7467 33.9161C41.0021 33.9161 44.4524 30.5351 44.4524 26.3677C44.4524 22.2004 41.0021 18.8193 36.7467 18.8193C34.4374 18.8193 32.2916 19.9005 30.6137 21.3355" stroke="white" stroke-width="3.77419" stroke-miterlimit="10" stroke-linecap="round"/>
</g>
<defs>
<clipPath id="clip0_480_1839">
<rect width="40.2581" height="40.2581" fill="white" transform="translate(6.70898 6.23877)"/>
</clipPath>
</defs>
</svg>
