<svg width="52" height="52" viewBox="0 0 52 52" fill="none" xmlns="http://www.w3.org/2000/svg">
<path d="M0 8.38709C0 3.75503 3.75503 0 8.3871 0H43.6129C48.245 0 52 3.75503 52 8.3871V43.6129C52 48.245 48.245 52 43.6129 52H8.38709C3.75503 52 0 48.245 0 43.6129V8.38709Z" fill="#FF4242"/>
<path d="M14.2852 22.9184C14.2852 22.12 14.2852 21.7208 14.3392 21.3889C14.5612 20.0257 15.4338 18.96 16.55 18.6888C16.8218 18.6228 17.1486 18.6228 17.8023 18.6228H26.947H36.0916C36.7454 18.6228 37.0722 18.6228 37.344 18.6888C38.4602 18.96 39.3327 20.0257 39.5548 21.3889C39.6088 21.7208 39.6088 22.12 39.6088 22.9184C39.6088 23.7168 39.6088 24.116 39.5548 24.448C39.3327 25.8113 38.4602 26.8769 37.344 27.1481C37.0722 27.214 36.7454 27.214 36.0916 27.214H26.947H17.8023C17.1486 27.214 16.8218 27.214 16.55 27.1481C15.4338 26.8769 14.5612 25.8113 14.3392 24.448C14.2852 24.116 14.2852 23.7168 14.2852 22.9184Z" stroke="white" stroke-width="3.89594" stroke-linejoin="round"/>
<path d="M15.6895 27.2141V34.0871C15.6895 37.327 15.6895 38.947 16.5136 39.9536C17.3377 40.9601 18.6641 40.9601 21.3169 40.9601H22.7238H31.165H32.5719C35.2247 40.9601 36.5511 40.9601 37.3752 39.9536C38.1993 38.947 38.1993 37.327 38.1993 34.0871V27.2141" stroke="white" stroke-width="3.89594" stroke-linecap="round" stroke-linejoin="round"/>
<path d="M26.9473 18.6228V40.96" stroke="white" stroke-width="3.89594" stroke-linecap="round" stroke-linejoin="round"/>
<path d="M26.0689 17.2809L23.2841 13.0295C22.2365 11.4301 20.2806 11.3011 19.0948 12.7494C17.3222 14.9143 18.5721 18.6226 21.0789 18.6226H25.5409C26.1078 18.6226 26.4231 17.8216 26.0689 17.2809Z" stroke="white" stroke-width="3.89594" stroke-linecap="round" stroke-linejoin="round"/>
<path d="M27.8233 17.2809L30.608 13.0295C31.6557 11.4301 33.6116 11.3011 34.7974 12.7494C36.5699 14.9143 35.3201 18.6226 32.8133 18.6226H28.3513C27.7843 18.6226 27.469 17.8216 27.8233 17.2809Z" stroke="white" stroke-width="3.89594" stroke-linecap="round" stroke-linejoin="round"/>
</svg>
