<?xml version="1.0" encoding="UTF-8"?><svg id="Calque_1" xmlns="http://www.w3.org/2000/svg" xmlns:xlink="http://www.w3.org/1999/xlink" viewBox="0 0 2300 2300"><defs><style>.cls-1{fill:#fff;stroke-width:0px;}</style></defs><path class="cls-1" d="M712.57,1892.67c-50.31-1.93-133.5-19.63-157.63-69.43-16.64-34.34-3.8-79.8,7.76-113.85,2.68-7.9,57.12-103.67,67.01-89.12-10.51-15.46-19.26-34.99-22.79-59.26-30.2-61.59,2.45-124.42-11.6-186.48-6.59-29.1-1.61-17.2-35.71-33.57-25.62-12.31-47.24-29.39-63.37-53.07-35.94-52.8-48.25-127.66-45.55-190.36,3.14-72.91,47.59-118.71,71.11-184.6,25.5-71.47,64.78-146.75,73.69-222.64,7.36-62.65,53.38-110.04,113.05-119.91,7.46-7.59,14.2-13.21,18.82-17.06l1.59-1.33c120.96-102,257.34-154.07,405.25-154.68,101.71-.42,202.47,23.6,293.29,69.33,47.75,24.04,86.42,58.27,131.24,85.97,37.25,23.03,79.64,28.07,108.56,65.36,26.75,34.49,22.66,72.13,34.79,111.46,19.95,64.67,55.99,121.26,59.06,190.83.28,1.56,1.19,6.11,1.88,9.52.15.72.3,1.47.46,2.22,50.58,26.54,79.85,86.19,72.94,142.49-.75,6.1-1.9,12.17-1.93,18.31-.04,7.57,1.62,15.02,2.86,22.49,9.69,58.43-7.52,124.75-43.05,171.64-17.63,23.27-40.43,40.73-66.64,51.36-24.49,7.16-40.11,237.33-62.85,274.55-1.62,2.65-3.41,5.41-5.39,8.25,11.01,7.87,20.85,17.39,29.18,28.4,4.91,6.46,9.97,14.34,14.42,23.64,41,56.95,31.92,135.52-21.39,181.51-65.67,56.64-183.71,33.58-263.3,33.36l-53.36-.16-132.36.93c-157.47,1.11-320.31,2.26-480.57,2.92l-10.01.04c-1.24.09-2.49.23-3.75.34-8.54.75-17.12.92-25.69.59Z"/><path class="cls-1" d="M1700.25,1124.95c-4.6-.52-9.21-1.04-13.8-1.55,0,0,0,0-.01,0,0,0,0,0,0,0,3.84-2.78,10.63-5.25,10.95-8.39.89-8.78-7.64-5.68-12.56-7.47-17.28-6.3-42.54,9.23-51.89-18.77h0c3.53-7.31,7.05-14.61,10.58-21.92h0s0,0,0,0c20.56-7.68,48.91,15.91,63.5-15.74h0,0c-1.6-8.49-8.87-5.68-14.06-7.02h0,0c-10.32-17.67-28.25-13.93-44.23-15.65,0,0,0,0,0,0h0c-7.72-7.55-6.67-17.78-8.34-27.18h0c4.49-25.11-5.97-48.69-7.54-73.18h0c-.99-38.88-21.99-72.21-30.44-109.02-7.58-11.64-8.88-29.15-28.09-29.93h0c-2.17-2.47-4.35-4.94-6.52-7.4,17.42-21.48-10.47-24.6-15.11-37.15-4.85-7.12-9.71-14.25-14.56-21.37-.03-1.92.07-3.82.31-5.72h0c10.09-3.63,25.7,2.64,28.51-13.97,1.63-9.67-6.95-10.34-14.09-10.95-.25,1.33-.68,2.59-1.3,3.8h0c-.28-.06-.57-.11-.85-.17.71-1.22,1.43-2.43,2.15-3.63-19.1-7.87-38.33-15.08-59.65-11.49h0s0,0,0,0c-2.6-2.71-5.21-5.41-7.82-8.12-11.5-10.59-8.69-37.34-35.18-31.02,0,0,0,0,0,0-2.76-2.05-5.51-4.11-8.27-6.16h0c-1.74-19.16-10.32-25.49-27.98-14.87,0,0,0,0,0,0-20.45-29.04-47.97-48.13-82.06-57.96h0c-1.8-1.59-3.34-3.96-5.44-4.65-188.19-61.91-361.06-37.67-514.79,91.96-9.95,8.39-21.31,16.88-22.64,31.87,0,0,0,0,0,0-4.26,3.35-8.52,6.7-12.79,10.03h0c-7.73-.21-15.95-4.93-22.81,2.56h0c-4.72,1.11-9.44,2.21-14.16,3.32-7.18-1.69-15.04-2.72-16.17,6.98-1.2,10.33,4.84,14.89,15.27,12.98,4.87-.41,9.75-.81,14.62-1.22h0c0,5.55,0,11.09.01,16.64h0c-22.49,37.44-61.31,64.64-69.84,110.84h0s0,0,0,0c-10.69,15.24-16.83,31.99-17.07,50.73h0c-10.68,1.03-12.76,8.4-14.6,17.48-7.64,37.76-13.8,75.66-14.6,114.27-2.36,1.99-4.73,3.99-7.09,5.98-13.14,5.79-33.94,0-35.5,23.33-5.22,1.36-14.47,1.42-10.51,9.18,5.18,10.15,16.63,4.3,25.42,5.1h0s0,0,0,0c19.88-4.95,28.27,7.83,35.31,22.72,0,0,0,0,0,.01,1.87,16.32-15.5,13-21.66,21.11h0c-13.29,6.21-32.3-11.51-41.96,9.95.03,0,.06,0,.08-.02-.02.01-.04.02-.06.03-11.46,16-12.25,32.45-2.11,49.37.28,9.29,4.74,14.73,14.32,15.43.57,4.67,1.14,9.34,1.71,14.01,0,0,0,0,0,0,0,0,0,0,0,0,1.57,2.51,3.15,5.02,4.72,7.53h0c4.74,10.41,11.89,16.39,24.11,13.1,4.68.58,9.36,1.16,14.04,1.74h0c15.05,13.4,44.04-8.36,52.82,20.84,2.07,19.4,7.24,36.73,28.84,43.13,6.08,11.15,3.91,28.08,21.8,30.95,0,0,0,0,0,0,4.48,9.72,12.69,15.55,21.63,20.61h0c.66,2.71,1.33,5.41,1.99,8.12,1.87,8.85,3.74,17.71,5.61,26.56-4.67.96-9.35,1.93-14.02,2.9h0c-9.37,2.49-18.74,4.97-28.11,7.46,0,0,0,0,0,0,0,0,0,0,0,0-13.93,10.33-2.95,12.37,5.03,12.7,17.52.73,35.1-.01,52.66-.16h0c1.52.62,3.05,1.19,4.63,1.74,0,0,0,0,0,0h0s.02,0,.03,0c0-.01,0-.02,0-.04l1.64-1.12c.35,17.04.69,34.09,1.04,51.13-8.33,5.27-5.06,14.26-7.03,21.58,0,0,0,0,0,0h0s-.08.46-.08.46c-5.24.18-10.47.35-15.71.53h0c-2.23-.8-4.43-.72-6.59.25h0s0,0,0,0c-9.8.17-19.6.33-29.41.49-21.81,14.7-17.26,29.94-.93,45.42-1.06,1.91-.63,3.36,1.3,4.38-.27,10.42-5.2,21.81,6.24,29.79,35.86,25.55,74.28,14.58,112.4,7.85,0,0,0,0,0,0,0,0,0,0,.01,0,2.18-2.73,4.36-5.45,6.54-8.17,0,0,0,0,0,0h0c13.17-7.34,3.95-19.85,6.87-29.56,4.36-2.89,8.72-5.78,13.08-8.66,2.93.4,5.87.79,8.8,1.19.04.12.05.25.09.37,0,0,.93-.23.93-.23-.21-.03-.41-.05-.62-.08.19-.18.34-.36.53-.54.03.21.06.41.09.62-17.9,69.85-46.27,135.47-80.55,198.7-35.11,5.33-72.36-7.11-105.73,12.66,0,0,0,0,0,0-16.34,3.85-18.78,16.18-18.48,30.17h0s0,0,0,0c.01,0,.02.01.04.02.95.73,1.93,1.29,2.93,1.77,16.47,10.13,35,4.19,52.29,4.12,208.13-.83,416.25-2.48,624.39-3.91,71.6.21,143.21.39,214.81.65,24.22.09,28.83-6.67,8.16-22.61-.05,0-.09.01-.14.02.9-6.58.57-12.44-7.92-13.6h0c-10.26-9.72-22.94-10.74-36.3-11.22-22.43-.82-45.19,3.9-67.28-3.43h0c-24.04-30.9-18.59-76.47-51.46-102.98,0,0,0,0,0,0-10-12.06-13.81-26.58-16.57-41.52-4.99-9.63-9.99-19.26-14.98-28.9h0c-.03-2.65-.05-5.3-.08-7.95-6.28-17.34-10.02-35.79-22.03-50.65h0c.88-2.29,1.47-4.64,1.76-7.07t0,0s0,0,0,0c2.34-2.46,4.68-4.92,7.03-7.38t0,0c2.41,0,4.82-.07,7.23-.22h0c28.95,8.25,2.31,38.19,19.93,50.86,1.19,2.41,2.39,4.82,3.58,7.24-6.18,18.74,4.81,25.58,20.37,29.25.73,8.05,6.78,8.39,12.79,8.78h0s0,0,0,0c17.04,9.1,35.55,5.17,53.01,3.89,21.27-1.56,47.26,7.22,60.39-20.01l-3.28-.54c-.03-.12-.06-.2-.09-.31,1.12.28,2.25.56,3.37.85,9.45-10.77,3.35-24.13,6.04-36.02,15.34-10.27,6.09-24.94,6.81-37.83h0s0,0,0,0c2.72-15.08-2.81-22.02-18.93-21.5-17.8.57-35.65-.58-53.48-.97,0,0,0,0,0,0,.64-18.21,1.27-36.42,1.91-54.62,6.34-1.05,12.7-2.1,19.05-3.15h0c15.63-.06,31.26-.13,53-.22-16.01-10.74-26.2-16.21-38.94-13.54-2.67-.69-5.34-1.38-7.98-2.07,0,0-.02,0-.03,0,0,0,0,0,0,0-23.75-12.08,9.39-23.19.81-35.02.08-.05.15-.11.24-.17-.06-.07-.12-.14-.17-.22,17.68-1.72,30.39-8.46,29.27-29.12,1.52-1.3,1.56-2.65.12-4.04,13.13-6.89,20.37-17.67,21.55-32.46,10.78-8.55,9.21-22.62,15.01-33.39,7.04-3.48,12.1-8.71,14.55-16.27,9.64-.69,19.27-1.38,28.91-2.07,20.94-.74,44.83,10.7,59.82-14.48h0c8.47-5.72,6.67-13.84,5.16-21.91.69-4.77,1.38-9.54,2.07-14.3,15.83-15.3,13.83-29.98-1.56-44.18ZM745.53,821.62c.04-.07.05-.15.09-.22.04.08.07.15.12.23-.06,0-.13,0-.19,0h0ZM1467.58,1520.62c-.15.28-.4.45-.57.7-.08-.26-.16-.52-.25-.78.27.04.55.03.82.08h0s0,0,0,0ZM775.8,769.47c.12-.12.25-.24.37-.36.25.24.45.49.71.74,0,0-.23.1-.53.24-.2-.2-.34-.42-.55-.61ZM888.78,1421.89c-.23-.09-.45-.17-.68-.26,1.36-.41,2.45-.35,3.33.09-.81-.04-1.65-.02-2.64.18h0s0,0,0,0ZM1127.39,590.44v.02c.38.73.67,1.48,1.01,2.22-.37.04-.75.09-1.12.13-.31-.29-.62-.61-.94-.88.5-.7,1.05-1.47,1.05-1.47,0,0,0,0,0,0ZM1075.9,1082s0,0,0,0h0c.27.87.3,1.71.47,2.57-.65-.27-1.33-.62-1.95-.84.5-.57,1.07-1.07,1.48-1.73ZM1238.36,1170.61c.02.59.04,1.19.07,1.78-.42.1-.84.2-1.25.3.39-.72.81-1.3,1.19-2.08ZM1102.35,1516.38c-.39-.49-.85-.82-1.19-1.41,0,0,0,0,0,0h0c.44,0,.88,0,1.32,0-.03.45-.13,1-.14,1.42ZM998.02,818.68c-.2-.81-.4-1.63-.6-2.44,1.06.54,2.12,1.11,3.15,1.53-.85.31-1.71.6-2.55.92ZM1472.14,848.3s0-.02,0-.03h.03s0,0,0,0c0,0,0,0,0,0,0,0-.01.01-.02.02ZM1501.4,804.08c-.89-.02-1.92-.03-1.92-.03.01-.06,0-.1.01-.16.65.04,1.3.09,1.95.13-.01.02-.02.04-.04.06ZM1603.94,965.28s0,0,0,0c-.08-.09-.13-.19-.21-.29.13-.07.32-.11.44-.18-.07.16-.15.31-.22.47h0ZM1430.27,1438.01h0s0,0,0,0h0ZM1430.27,1438.01l.03.39c-.16.6-.26,1.25-.39,1.88-.5-.22-.99-.44-1.49-.66.61-.54,1.23-1.07,1.84-1.61ZM1607.07,958.58c-.02-.58.04-1.1-.08-1.74.2.41.2.81.33,1.22-.08.17-.16.35-.25.52ZM815.4,1530.33c0-.2-.01-.4-.01-.59.12.18.21.41.33.59-.11,0-.21,0-.32,0ZM1625.6,1160.29c.53-.04,1.05-.07,1.57-.11-.53.41-1.05.81-1.54,1.29,0-.39-.01-.78-.02-1.16,0,0-.01,0-.02,0,0,0,0,0,0,0ZM1573.76,842.89h0s0,0,0,0c-.38-.52-.76-1.03-1.15-1.55.4-.06.8-.15,1.21-.29-.02.61-.04,1.22-.06,1.83ZM658.77,967.71h0c.04.19.03.37.06.55-.1-.08-.21-.16-.31-.24.09-.09.14-.2.24-.3,0,0,0,0,0,0Z"/><image width="137" height="146" transform="translate(568.33 542.31) rotate(-.24) scale(8.6)" xlink:href="../Azul App-7/image 23.png"/></svg>