<?xml version="1.0" encoding="utf-8"?>
<!-- Generator: Adobe Illustrator 28.1.0, SVG Export Plug-In . SVG Version: 6.00 Build 0)  -->
<svg version="1.1" id="Calque_1" xmlns="http://www.w3.org/2000/svg" xmlns:xlink="http://www.w3.org/1999/xlink" x="0px" y="0px"
	 viewBox="0 0 194.6 150.4" style="enable-background:new 0 0 194.6 150.4;" xml:space="preserve">
<style type="text/css">
	.st0{fill:url(#SVGID_1_);}
	.st1{fill:url(#SVGID_00000038385505290436360260000008625814084974741403_);}
	.st2{fill:#515EE5;}
	.st3{fill:#4796D2;}
	.st4{fill:#FFFFFF;}
	.st5{clip-path:url(#SVGID_00000028301630545412438680000011068582973949799099_);}
	.st6{clip-path:url(#SVGID_00000085223008770272098130000012745380627854334091_);}
	.st7{clip-path:url(#SVGID_00000164501804112205655070000000964378142248331934_);}
	.st8{filter:url(#Adobe_OpacityMaskFilter);}
	
		.st9{clip-path:url(#SVGID_00000085223008770272098130000012745380627854334091_);mask:url(#SVGID_00000066517129648192550900000006763332473441005191_);}
	.st10{filter:url(#Adobe_OpacityMaskFilter_00000176039521759556679980000003840702036758603654_);}
	.st11{enable-background:new    ;}
	.st12{filter:url(#Adobe_OpacityMaskFilter_00000173860550323596111470000004957458827511389345_);}
	.st13{clip-path:url(#SVGID_00000101103235023720114370000001187538584729686700_);}
	.st14{clip-path:url(#SVGID_00000085223008770272098130000012745380627854334091_);fill:#FFFFFF;}
	.st15{clip-path:url(#SVGID_00000085223008770272098130000012745380627854334091_);fill:#EA534B;}
	.st16{clip-path:url(#SVGID_00000015346460790726183550000005140434666439366837_);}
	.st17{filter:url(#Adobe_OpacityMaskFilter_00000051363220980276484760000006992001654103706546_);}
	
		.st18{clip-path:url(#SVGID_00000085223008770272098130000012745380627854334091_);mask:url(#SVGID_00000083806487586417389020000002099773493077089935_);}
	.st19{filter:url(#Adobe_OpacityMaskFilter_00000098937283279962959810000014645697316338794383_);}
	.st20{filter:url(#Adobe_OpacityMaskFilter_00000031182953757944668810000011092030324650737302_);}
	.st21{clip-path:url(#SVGID_00000010999148727764461850000018052230859818863747_);}
	.st22{clip-path:url(#SVGID_00000052815632410436313130000000470961542724417926_);}
	.st23{filter:url(#Adobe_OpacityMaskFilter_00000163758312153585166070000015931974271215620224_);}
	
		.st24{clip-path:url(#SVGID_00000085223008770272098130000012745380627854334091_);mask:url(#SVGID_00000155824591598538569830000010001244620785512859_);}
	.st25{filter:url(#Adobe_OpacityMaskFilter_00000168112762873492940610000017941298053101800083_);}
	.st26{filter:url(#Adobe_OpacityMaskFilter_00000167374771461490852420000013933435142424663231_);}
	.st27{clip-path:url(#SVGID_00000114775928873057492170000006499083011183195012_);}
	.st28{clip-path:url(#SVGID_00000091016540246971145680000012693829256684178340_);}
	.st29{filter:url(#Adobe_OpacityMaskFilter_00000129165953013330885470000007750861338512168370_);}
	
		.st30{clip-path:url(#SVGID_00000085223008770272098130000012745380627854334091_);mask:url(#SVGID_00000102507731723079574340000012794094502394977162_);}
	.st31{filter:url(#Adobe_OpacityMaskFilter_00000092440880429632425440000017304824926949866417_);}
	.st32{filter:url(#Adobe_OpacityMaskFilter_00000014613698200081858080000008958102273555547543_);}
	.st33{clip-path:url(#SVGID_00000106148831630354704630000007862325394912219015_);}
	.st34{clip-path:url(#SVGID_00000113336410285545826350000009503111961499125686_);}
	.st35{filter:url(#Adobe_OpacityMaskFilter_00000029009067931101579700000004248390256807202964_);}
	
		.st36{opacity:0.2;clip-path:url(#SVGID_00000085223008770272098130000012745380627854334091_);mask:url(#SVGID_00000014598638604693477400000002934268886692386994_);}
	.st37{filter:url(#Adobe_OpacityMaskFilter_00000065782344849078515770000002621865934205037753_);}
	.st38{opacity:0.2;}
	.st39{filter:url(#Adobe_OpacityMaskFilter_00000049936869157755000280000001705719301449930131_);}
	.st40{clip-path:url(#SVGID_00000106105669831953918080000008984542300923586703_);}
	.st41{clip-path:url(#SVGID_00000117661838335627435160000016985398580281182351_);}
	.st42{clip-path:url(#SVGID_00000101090793864712142480000018240858350930225304_);}
	.st43{clip-path:url(#SVGID_00000011743658548711273680000016423172346738352318_);}
	.st44{filter:url(#Adobe_OpacityMaskFilter_00000087400914320587234600000010203046034229427355_);}
	
		.st45{clip-path:url(#SVGID_00000101090793864712142480000018240858350930225304_);mask:url(#SVGID_00000095306306226818029030000009050118754995187345_);}
	.st46{filter:url(#Adobe_OpacityMaskFilter_00000056414604322809877710000009327202914146524858_);}
	.st47{filter:url(#Adobe_OpacityMaskFilter_00000018208458636088570100000009638236401370857345_);}
	.st48{clip-path:url(#SVGID_00000031198376768607984790000017431634047552778156_);}
	.st49{clip-path:url(#SVGID_00000101090793864712142480000018240858350930225304_);fill:#FFFFFF;}
	.st50{clip-path:url(#SVGID_00000101090793864712142480000018240858350930225304_);fill:#EA534B;}
	.st51{clip-path:url(#SVGID_00000080199120798548297270000005933404880601492658_);}
	.st52{filter:url(#Adobe_OpacityMaskFilter_00000030474554432161638700000009729007923340458896_);}
	
		.st53{clip-path:url(#SVGID_00000101090793864712142480000018240858350930225304_);mask:url(#SVGID_00000180366905106812235810000010809833794827493565_);}
	.st54{filter:url(#Adobe_OpacityMaskFilter_00000106128286223234121910000006302018823519925639_);}
	.st55{filter:url(#Adobe_OpacityMaskFilter_00000093155288238008086860000012637040243477027258_);}
	.st56{clip-path:url(#SVGID_00000080902524721758340720000009897557162683899803_);}
	.st57{clip-path:url(#SVGID_00000053526451327784693040000017569033744609711804_);}
	.st58{filter:url(#Adobe_OpacityMaskFilter_00000180328774959839551240000017959630729303129510_);}
	
		.st59{clip-path:url(#SVGID_00000101090793864712142480000018240858350930225304_);mask:url(#SVGID_00000062150544404640265480000008555596885318186658_);}
	.st60{filter:url(#Adobe_OpacityMaskFilter_00000114754684978026069490000007125131748274626239_);}
	.st61{filter:url(#Adobe_OpacityMaskFilter_00000180333189347331203090000004407573674361884581_);}
	.st62{clip-path:url(#SVGID_00000155835420287693827980000009081103755101232811_);}
	.st63{clip-path:url(#SVGID_00000150791003935824628130000012230631373075435668_);}
	.st64{filter:url(#Adobe_OpacityMaskFilter_00000057826386776648398320000005812165747381531811_);}
	
		.st65{clip-path:url(#SVGID_00000101090793864712142480000018240858350930225304_);mask:url(#SVGID_00000150794478161142386640000002512216951178971016_);}
	.st66{filter:url(#Adobe_OpacityMaskFilter_00000111190627204928675510000001102578676981599415_);}
	.st67{filter:url(#Adobe_OpacityMaskFilter_00000033351137233302589630000009963636122904880778_);}
	.st68{clip-path:url(#SVGID_00000021818683658530104840000013828689729101226631_);}
	.st69{clip-path:url(#SVGID_00000078740801385721958660000005109423572725949856_);}
	.st70{filter:url(#Adobe_OpacityMaskFilter_00000173139149187851767600000004137823232985435836_);}
	
		.st71{opacity:0.2;clip-path:url(#SVGID_00000101090793864712142480000018240858350930225304_);mask:url(#SVGID_00000016794879268931340880000015143820327294047116_);}
	.st72{filter:url(#Adobe_OpacityMaskFilter_00000160887189092057586150000011741658028003171990_);}
	.st73{filter:url(#Adobe_OpacityMaskFilter_00000073705586497935268870000006452859124989548182_);}
	.st74{clip-path:url(#SVGID_00000094601829777832554800000003113299595817284781_);}
	.st75{clip-path:url(#SVGID_00000067212272736579599850000014244124278845293469_);}
	.st76{clip-path:url(#SVGID_00000010992865939537087200000000512040474280788116_);}
	.st77{clip-path:url(#SVGID_00000008107947327878379170000009062909125721465741_);}
	.st78{filter:url(#Adobe_OpacityMaskFilter_00000104698010934530000430000006670469798649276035_);}
	
		.st79{clip-path:url(#SVGID_00000010992865939537087200000000512040474280788116_);mask:url(#SVGID_00000097475362354277678450000010886258200393012651_);}
	.st80{filter:url(#Adobe_OpacityMaskFilter_00000032616032019456855110000011552300316324242561_);}
	.st81{filter:url(#Adobe_OpacityMaskFilter_00000162333659404923426810000002479237008532586908_);}
	.st82{clip-path:url(#SVGID_00000014599735621935992450000009433062131932785285_);}
	.st83{clip-path:url(#SVGID_00000010992865939537087200000000512040474280788116_);fill:#FFFFFF;}
	.st84{clip-path:url(#SVGID_00000010992865939537087200000000512040474280788116_);fill:#EA534B;}
	.st85{clip-path:url(#SVGID_00000135684039004283411590000012211758445297580478_);}
	.st86{filter:url(#Adobe_OpacityMaskFilter_00000159448489005181268500000003833999694869086086_);}
	
		.st87{clip-path:url(#SVGID_00000010992865939537087200000000512040474280788116_);mask:url(#SVGID_00000183947899303276332100000012581142458350348714_);}
	.st88{filter:url(#Adobe_OpacityMaskFilter_00000080908396749323545460000014454368329766289050_);}
	.st89{filter:url(#Adobe_OpacityMaskFilter_00000140726813221172816450000011633702705699463826_);}
	.st90{clip-path:url(#SVGID_00000175293104668577260750000015636457495421363859_);}
	.st91{clip-path:url(#SVGID_00000057856172293462581760000004450138939682351536_);}
	.st92{filter:url(#Adobe_OpacityMaskFilter_00000113340798946589213040000003877760402105282199_);}
	
		.st93{clip-path:url(#SVGID_00000010992865939537087200000000512040474280788116_);mask:url(#SVGID_00000173843556250361478370000010922046273467896479_);}
	.st94{filter:url(#Adobe_OpacityMaskFilter_00000113345134005657095150000010302954257785015729_);}
	.st95{filter:url(#Adobe_OpacityMaskFilter_00000045578503703135791430000017404313592862634380_);}
	.st96{clip-path:url(#SVGID_00000013874777745984259920000016257705971144750249_);}
	.st97{clip-path:url(#SVGID_00000097494807574703400970000010502269232061193115_);}
	.st98{filter:url(#Adobe_OpacityMaskFilter_00000183223569791391419050000012425679026436955326_);}
	
		.st99{clip-path:url(#SVGID_00000010992865939537087200000000512040474280788116_);mask:url(#SVGID_00000121266253885951772940000005064982003366849445_);}
	.st100{filter:url(#Adobe_OpacityMaskFilter_00000031167618300970239710000006527845456169517961_);}
	.st101{filter:url(#Adobe_OpacityMaskFilter_00000119107671976896136420000010055869254006731152_);}
	.st102{clip-path:url(#SVGID_00000181803118763605743800000015883840995600856448_);}
	.st103{clip-path:url(#SVGID_00000123408056512959673790000005540920800358928816_);}
	.st104{filter:url(#Adobe_OpacityMaskFilter_00000139983417063864964080000013770373689989975450_);}
	
		.st105{opacity:0.2;clip-path:url(#SVGID_00000010992865939537087200000000512040474280788116_);mask:url(#SVGID_00000054982594558747630730000000461336429584918148_);}
	.st106{filter:url(#Adobe_OpacityMaskFilter_00000021820671412821973140000010923346954676659128_);}
	.st107{filter:url(#Adobe_OpacityMaskFilter_00000042702219094304631560000013228085291487212930_);}
	.st108{clip-path:url(#SVGID_00000084508390169775195920000013648656263146046365_);}
</style>
<g>
	<path class="st2" d="M91.5,91.1c-3.7-3.5-3.1-7.9,1.8-13.2l29-30.9c5-5.3,9.3-6.2,12.9-2.8c3.8,3.6,3.3,8.1-1.7,13.3l-29,30.9
		C99.6,93.7,95.2,94.6,91.5,91.1z"/>
</g>
<g>
	<path class="st2" d="M102.9,114c-2-4.7-0.1-8.3,5.8-10.8l34.2-14.5c5.8-2.5,9.7-1.4,11.7,3.2c2.1,4.9,0.2,8.5-5.7,11l-34.2,14.5
		C108.8,119.8,104.9,118.7,102.9,114z"/>
</g>
<g>
	<path class="st2" d="M67.6,79c-5-0.9-7-4.2-6-9.9l6.2-33c1.1-5.6,4-8,8.9-7.1c5.2,1,7.2,4.3,6.2,9.9l-6.2,33
		C75.7,77.7,72.6,80,67.6,79z"/>
</g>
<g>
	<defs>
		<path id="SVGID_00000108280547263178890510000003026259486421002154_" d="M381.3,329.3H61.9c-11.3,0-20.5-9.2-20.5-20.5v-56.2
			c0-11.3,9.2-20.5,20.5-20.5h319.3c11.3,0,20.5,9.2,20.5,20.5v56.2C401.8,320.1,392.6,329.3,381.3,329.3z"/>
	</defs>
	<clipPath id="SVGID_00000132064119017902450290000007713800104007082928_">
		<use xlink:href="#SVGID_00000108280547263178890510000003026259486421002154_"  style="overflow:visible;"/>
	</clipPath>
	<g style="clip-path:url(#SVGID_00000132064119017902450290000007713800104007082928_);">
		<g>
			<defs>
				<rect id="SVGID_00000163053551880850420360000014830247924087267720_" x="41.5" y="6.1" width="360" height="549"/>
			</defs>
			<clipPath id="SVGID_00000131351367547928994140000007817480154163366292_">
				<use xlink:href="#SVGID_00000163053551880850420360000014830247924087267720_"  style="overflow:visible;"/>
			</clipPath>
			<g style="clip-path:url(#SVGID_00000131351367547928994140000007817480154163366292_);">
				<defs>
					<path id="SVGID_00000061449559302782062600000006581499917614881708_" d="M41.5,26.1c0-11,9-20,20-20h320c11,0,20,9,20,20v57
						c0,11-9,20-20,20h-320c-11,0-20-9-20-20V26.1z"/>
				</defs>
				<clipPath id="SVGID_00000163789937108141817260000018105141067239416218_">
					<use xlink:href="#SVGID_00000061449559302782062600000006581499917614881708_"  style="overflow:visible;"/>
				</clipPath>
				<g style="clip-path:url(#SVGID_00000163789937108141817260000018105141067239416218_);">
					<defs>
						<rect id="SVGID_00000123425260704474285080000004495725263069411738_" x="41.5" y="-170.4" width="360" height="450"/>
					</defs>
					<clipPath id="SVGID_00000060730960803529916190000014278095795093006496_">
						<use xlink:href="#SVGID_00000123425260704474285080000004495725263069411738_"  style="overflow:visible;"/>
					</clipPath>
					
						<g transform="matrix(1 0 0 1 0 1.525879e-05)" style="clip-path:url(#SVGID_00000060730960803529916190000014278095795093006496_);">
						
							<image style="overflow:visible;" width="1092" height="1365" xlink:href="4B224A29C2625D55.png"  transform="matrix(0.3297 0 0 0.3297 41.5254 -170.4224)">
						</image>
					</g>
				</g>
			</g>
			<defs>
				<filter id="Adobe_OpacityMaskFilter" filterUnits="userSpaceOnUse" x="41.5" y="5.9" width="360.2" height="97.2">
					<feColorMatrix  type="matrix" values="1 0 0 0 0  0 1 0 0 0  0 0 1 0 0  0 0 0 1 0"/>
				</filter>
			</defs>
			<mask maskUnits="userSpaceOnUse" x="41.5" y="5.9" width="360.2" height="97.2" id="SVGID_1_">
				<g class="st8">
					<g>
						<g>
							<defs>
								<path id="SVGID_00000173860854826814294270000003425104287041664948_" d="M41.5,26.1c0-11,9-20,20-20h320c11,0,20,9,20,20
									v57c0,11-9,20-20,20h-320c-11,0-20-9-20-20V26.1z"/>
							</defs>
							
								<clipPath id="SVGID_00000114774354120737878690000012658280140299942038_" style="clip-path:url(#SVGID_00000131351367547928994140000007817480154163366292_);">
								<use xlink:href="#SVGID_00000173860854826814294270000003425104287041664948_"  style="overflow:visible;"/>
							</clipPath>
							<g style="clip-path:url(#SVGID_00000114774354120737878690000012658280140299942038_);">
								
									<image style="overflow:visible;" width="1501" height="405" xlink:href="4B224A29C2625D57.jpg"  transform="matrix(0.24 0 0 0.24 41.4991 5.9227)">
								</image>
							</g>
						</g>
					</g>
				</g>
			</mask>
			<g style="clip-path:url(#SVGID_00000131351367547928994140000007817480154163366292_);mask:url(#SVGID_1_);">
				<defs>
					
						<filter id="Adobe_OpacityMaskFilter_00000182494044726403128830000017979525410399558032_" filterUnits="userSpaceOnUse" x="41.5" y="5.9" width="360.2" height="97.2">
						<feColorMatrix  type="matrix" values="1 0 0 0 0  0 1 0 0 0  0 0 1 0 0  0 0 0 1 0"/>
					</filter>
				</defs>
				<mask maskUnits="userSpaceOnUse" x="41.5" y="5.9" width="360.2" height="97.2" id="SVGID_1_">
					<g style="filter:url(#Adobe_OpacityMaskFilter_00000182494044726403128830000017979525410399558032_);">
						<rect x="40.5" y="5.1" width="362" height="99"/>
						<g class="st11">
							<g>
								<defs>
									<path id="SVGID_00000092439480299390819910000017146558421795409545_" d="M41.5,26.1c0-11,9-20,20-20h320c11,0,20,9,20,20
										v57c0,11-9,20-20,20h-320c-11,0-20-9-20-20V26.1z"/>
								</defs>
								<clipPath id="SVGID_00000119112289856376864360000002757089576384637334_">
									<use xlink:href="#SVGID_00000092439480299390819910000017146558421795409545_"  style="overflow:visible;"/>
								</clipPath>
								<g style="clip-path:url(#SVGID_00000119112289856376864360000002757089576384637334_);">
									
										<image style="overflow:visible;" width="1501" height="405" xlink:href="4B224A29C2625D55.jpg"  transform="matrix(0.24 0 0 0.24 41.4991 5.9227)">
									</image>
								</g>
							</g>
						</g>
					</g>
				</mask>
				<g>
					<g>
						<defs>
							<path id="SVGID_00000144329000383283401940000001599081472972677770_" d="M41.5,26.1c0-11,9-20,20-20h320c11,0,20,9,20,20v57
								c0,11-9,20-20,20h-320c-11,0-20-9-20-20V26.1z"/>
						</defs>
						<clipPath id="SVGID_00000155127904329626384140000006276476997783900329_">
							<use xlink:href="#SVGID_00000144329000383283401940000001599081472972677770_"  style="overflow:visible;"/>
						</clipPath>
						<defs>
							
								<filter id="Adobe_OpacityMaskFilter_00000112620642970032965470000010244489053452783787_" filterUnits="userSpaceOnUse" x="41.5" y="5.9" width="360.2" height="97.2">
								<feColorMatrix  type="matrix" values="1 0 0 0 0  0 1 0 0 0  0 0 1 0 0  0 0 0 1 0"/>
							</filter>
						</defs>
						<mask maskUnits="userSpaceOnUse" x="41.5" y="5.9" width="360.2" height="97.2" id="SVGID_1_">
							<g style="filter:url(#Adobe_OpacityMaskFilter_00000112620642970032965470000010244489053452783787_);">
								<g>
									<defs>
										<path id="SVGID_00000133506191329771414380000005238955779610481848_" d="M41.5,26.1c0-11,9-20,20-20h320c11,0,20,9,20,20
											v57c0,11-9,20-20,20h-320c-11,0-20-9-20-20V26.1z"/>
									</defs>
									
										<clipPath id="SVGID_00000035495767801042408780000002497184463936643771_" style="clip-path:url(#SVGID_00000155127904329626384140000006276476997783900329_);">
										<use xlink:href="#SVGID_00000133506191329771414380000005238955779610481848_"  style="overflow:visible;"/>
									</clipPath>
									<g style="clip-path:url(#SVGID_00000035495767801042408780000002497184463936643771_);">
										
											<image style="overflow:visible;" width="1501" height="405" xlink:href="4B224A29C2625D53.jpg"  transform="matrix(0.24 0 0 0.24 41.4991 5.9227)">
										</image>
									</g>
								</g>
							</g>
						</mask>
						<g style="clip-path:url(#SVGID_00000155127904329626384140000006276476997783900329_);">
							
								<image style="overflow:visible;" width="1501" height="405" xlink:href="4B224A29C2625D5D.jpg"  transform="matrix(0.24 0 0 0.24 41.4991 5.9227)">
							</image>
						</g>
					</g>
				</g>
			</g>
			<path style="clip-path:url(#SVGID_00000131351367547928994140000007817480154163366292_);fill:#FFFFFF;" d="M127.7,65.1v-8.5h5.7
				V58h-4.1v2.2h3.4v1.3h-3.4v3.5H127.7z M120.7,60.8h2.1c0.2,0,0.4-0.1,0.6-0.2c0.2-0.1,0.3-0.3,0.4-0.5s0.1-0.4,0.1-0.7
				c0-0.3-0.1-0.5-0.2-0.7c-0.1-0.2-0.3-0.4-0.4-0.5c-0.2-0.1-0.4-0.2-0.6-0.2h-2V60.8z M119,65.1v-8.5h3.8c0.4,0,0.8,0.1,1.1,0.2
				c0.3,0.2,0.6,0.4,0.9,0.6c0.2,0.3,0.4,0.6,0.6,0.9c0.1,0.3,0.2,0.7,0.2,1c0,0.4-0.1,0.7-0.2,1c-0.1,0.3-0.3,0.6-0.5,0.9
				c-0.2,0.2-0.5,0.4-0.8,0.6l1.9,3.2h-1.8l-1.8-2.9h-1.7v2.9H119z M110.4,60.8c0,0.4,0.1,0.7,0.2,1.1c0.1,0.3,0.3,0.7,0.5,0.9
				c0.2,0.3,0.5,0.5,0.8,0.6c0.3,0.2,0.7,0.2,1.1,0.2c0.4,0,0.8-0.1,1.1-0.2c0.3-0.2,0.6-0.4,0.8-0.7c0.2-0.3,0.4-0.6,0.5-0.9
				c0.1-0.3,0.2-0.7,0.2-1c0-0.4-0.1-0.7-0.2-1.1c-0.1-0.3-0.3-0.6-0.5-0.9c-0.2-0.3-0.5-0.5-0.8-0.6c-0.3-0.2-0.6-0.2-1-0.2
				c-0.4,0-0.8,0.1-1.1,0.3c-0.3,0.2-0.6,0.4-0.8,0.6c-0.2,0.3-0.4,0.6-0.5,0.9C110.5,60.1,110.4,60.5,110.4,60.8z M112.9,65.1
				c-0.6,0-1.2-0.1-1.7-0.4c-0.5-0.2-0.9-0.6-1.3-1c-0.4-0.4-0.6-0.9-0.8-1.4c-0.2-0.5-0.3-1.1-0.3-1.6c0-0.6,0.1-1.1,0.3-1.6
				c0.2-0.5,0.5-1,0.9-1.4c0.4-0.4,0.8-0.7,1.3-1c0.5-0.2,1.1-0.4,1.7-0.4c0.6,0,1.2,0.1,1.7,0.4c0.5,0.2,0.9,0.6,1.3,1
				c0.4,0.4,0.6,0.9,0.8,1.4s0.3,1,0.3,1.6c0,0.6-0.1,1.1-0.3,1.6c-0.2,0.5-0.5,1-0.9,1.4c-0.4,0.4-0.8,0.7-1.3,0.9
				C114,65,113.5,65.1,112.9,65.1z M102.2,63.3c0.1,0.1,0.3,0.2,0.6,0.3c0.3,0.1,0.6,0.1,0.9,0.1c0.3,0,0.6-0.1,0.8-0.2
				c0.2-0.1,0.4-0.3,0.5-0.5c0.1-0.2,0.2-0.5,0.2-0.8c0-0.3,0.1-0.8,0.1-1.2v-4.5h1.7v4.3c0,0.6,0,1.2-0.1,1.8
				c-0.1,0.5-0.2,1-0.4,1.4c-0.2,0.4-0.5,0.7-0.9,0.9c-0.4,0.2-1,0.3-1.7,0.3c-0.4,0-0.7,0-1-0.1s-0.6-0.2-0.8-0.4L102.2,63.3z
				 M95.3,61.8l-1.2-3.5l-1.2,3.5H95.3z M93.3,56.6h1.7l3.1,8.5h-1.7L95.6,63h-3l-0.8,2.1h-1.7L93.3,56.6z M86.8,65.1v-8.5h1.7v8.5
				H86.8z M80.7,65.1c-0.7,0-1.3-0.1-1.7-0.3c-0.5-0.2-0.9-0.5-1.2-0.9c-0.3-0.4-0.5-0.9-0.6-1.4C77,62,77,61.5,77,60.9v-4.3h1.7
				v4.3c0,0.4,0,0.7,0.1,1c0.1,0.3,0.2,0.6,0.3,0.9c0.2,0.3,0.4,0.5,0.6,0.6c0.3,0.2,0.6,0.2,1,0.2c0.4,0,0.7-0.1,1-0.2
				c0.3-0.2,0.5-0.4,0.6-0.6c0.2-0.3,0.3-0.6,0.3-0.9c0.1-0.3,0.1-0.7,0.1-1v-4.3h1.6v4.3c0,0.6-0.1,1.1-0.2,1.6
				c-0.1,0.5-0.4,1-0.7,1.4c-0.3,0.4-0.7,0.7-1.2,0.9C81.9,65,81.3,65.1,80.7,65.1z M68.5,60.8c0,0.4,0.1,0.7,0.2,1.1
				c0.1,0.3,0.3,0.7,0.5,0.9c0.2,0.3,0.5,0.5,0.8,0.6c0.3,0.2,0.7,0.2,1.1,0.2c0.4,0,0.8-0.1,1.1-0.2c0.3-0.2,0.6-0.4,0.8-0.7
				c0.2-0.3,0.4-0.6,0.5-0.9c0.1-0.3,0.2-0.7,0.2-1c0-0.4-0.1-0.7-0.2-1.1c-0.1-0.3-0.3-0.6-0.5-0.9c-0.2-0.3-0.5-0.5-0.8-0.6
				c-0.3-0.2-0.6-0.2-1-0.2c-0.4,0-0.8,0.1-1.1,0.3c-0.3,0.2-0.6,0.4-0.8,0.6s-0.4,0.6-0.5,0.9C68.5,60.1,68.5,60.5,68.5,60.8z
				 M70.9,65.1c-0.6,0-1.2-0.1-1.7-0.4c-0.5-0.2-0.9-0.6-1.3-1c-0.4-0.4-0.6-0.9-0.8-1.4c-0.2-0.5-0.3-1.1-0.3-1.6
				c0-0.6,0.1-1.1,0.3-1.6c0.2-0.5,0.5-1,0.9-1.4c0.4-0.4,0.8-0.7,1.3-1c0.5-0.2,1.1-0.4,1.7-0.4c0.6,0,1.2,0.1,1.7,0.4
				c0.5,0.2,0.9,0.6,1.3,1c0.4,0.4,0.6,0.9,0.8,1.4s0.3,1,0.3,1.6c0,0.6-0.1,1.1-0.3,1.6c-0.2,0.5-0.5,1-0.9,1.4
				c-0.4,0.4-0.8,0.7-1.3,0.9C72.1,65,71.5,65.1,70.9,65.1z M60.1,58v2.1h2.2c0.2,0,0.4,0,0.5-0.1c0.2-0.1,0.3-0.2,0.4-0.4
				c0.1-0.2,0.1-0.4,0.1-0.6c0-0.2,0-0.4-0.1-0.6c-0.1-0.2-0.2-0.3-0.3-0.4C62.7,58,62.5,58,62.3,58H60.1z M63.6,62.6
				c0-0.2,0-0.4-0.1-0.6c-0.1-0.2-0.2-0.3-0.4-0.4c-0.1-0.1-0.3-0.2-0.5-0.2h-2.5v2.2h2.5c0.2,0,0.4,0,0.5-0.1
				c0.2-0.1,0.3-0.2,0.4-0.4S63.6,62.8,63.6,62.6z M65.3,62.9c0,0.5-0.1,0.9-0.4,1.2c-0.2,0.3-0.6,0.6-1,0.7
				c-0.4,0.2-0.9,0.3-1.4,0.3h-4.1v-8.5H63c0.4,0,0.7,0.1,1,0.3c0.3,0.2,0.5,0.5,0.7,0.8c0.2,0.3,0.2,0.7,0.2,1
				c0,0.4-0.1,0.8-0.3,1.2c-0.2,0.4-0.5,0.6-0.9,0.8c0.5,0.1,0.9,0.4,1.2,0.8C65.1,61.9,65.3,62.3,65.3,62.9z"/>
			<path style="clip-path:url(#SVGID_00000131351367547928994140000007817480154163366292_);fill:#FFFFFF;" d="M252.9,82.2
				c0,0.5-0.1,1-0.2,1.5s-0.3,1-0.6,1.5s-0.5,1-0.8,1.4l-1.1-0.5c0.4-0.7,0.7-1.4,1-2c0.3-0.7,0.4-1.3,0.4-1.9
				c0-0.4-0.1-0.8-0.2-1.2c-0.1-0.4-0.2-0.8-0.4-1.2c-0.1-0.4-0.3-0.7-0.5-1c-0.2-0.3-0.3-0.5-0.4-0.7l1.1-0.5
				c0.5,0.8,0.8,1.6,1.2,2.3C252.8,80.7,252.9,81.5,252.9,82.2z M241.6,82.1c0-0.5,0.1-1,0.3-1.4c0.2-0.5,0.4-0.9,0.8-1.3
				c0.3-0.4,0.7-0.7,1.2-0.9c0.5-0.2,1-0.3,1.6-0.3c0.7,0,1.4,0.2,1.9,0.5c0.5,0.3,0.9,0.7,1.2,1.2l-1.2,0.8
				c-0.1-0.3-0.3-0.5-0.5-0.7c-0.2-0.2-0.4-0.3-0.7-0.4c-0.2-0.1-0.5-0.1-0.7-0.1c-0.4,0-0.7,0.1-1,0.2c-0.3,0.2-0.5,0.4-0.7,0.6
				c-0.2,0.3-0.3,0.5-0.4,0.8c-0.1,0.3-0.1,0.6-0.1,0.9c0,0.3,0.1,0.7,0.2,1c0.1,0.3,0.3,0.6,0.5,0.9c0.2,0.2,0.5,0.4,0.7,0.6
				c0.3,0.1,0.6,0.2,0.9,0.2c0.2,0,0.5,0,0.7-0.1s0.5-0.2,0.7-0.4c0.2-0.2,0.4-0.4,0.5-0.7l1.3,0.7c-0.2,0.4-0.4,0.7-0.8,1
				c-0.3,0.3-0.7,0.5-1.2,0.6c-0.4,0.1-0.9,0.2-1.3,0.2c-0.6,0-1.1-0.1-1.5-0.3c-0.5-0.2-0.9-0.5-1.2-0.9c-0.3-0.4-0.6-0.8-0.8-1.3
				C241.7,83.1,241.6,82.6,241.6,82.1z M246.2,81.2l-0.3,0.8h-5l0.3-0.8H246.2z M240.7,83.4l0.3-0.8h4.8l-0.3,0.8H240.7z
				 M236.4,87.7c-0.6,0-1.1-0.1-1.5-0.4s-0.8-0.6-1-1l0.9-0.9c0.2,0.3,0.5,0.5,0.8,0.7c0.3,0.2,0.6,0.3,1,0.3c0.3,0,0.5-0.1,0.7-0.2
				c0.2-0.1,0.4-0.3,0.5-0.5c0.1-0.2,0.2-0.4,0.2-0.7c0-0.3-0.1-0.5-0.2-0.7s-0.3-0.3-0.5-0.4c-0.2-0.1-0.4-0.2-0.7-0.2
				s-0.5,0.1-0.7,0.2c-0.2,0.1-0.4,0.3-0.5,0.5H234l0.9-4.7h3.9v1.4H236l-0.3,1.8c0.1-0.1,0.2-0.2,0.4-0.2c0.2-0.1,0.4-0.1,0.6-0.1
				c0.5,0,0.9,0.1,1.3,0.3s0.7,0.5,0.9,0.9c0.2,0.4,0.3,0.8,0.3,1.3c0,0.5-0.1,1-0.4,1.4c-0.3,0.4-0.6,0.7-1,0.9
				C237.5,87.6,237,87.7,236.4,87.7z M229.8,82.2c0-0.7,0.2-1.5,0.5-2.2c0.3-0.8,0.7-1.5,1.2-2.3l1.1,0.5c-0.1,0.2-0.2,0.4-0.4,0.7
				c-0.2,0.3-0.3,0.6-0.5,1c-0.1,0.4-0.3,0.8-0.4,1.2c-0.1,0.4-0.1,0.8-0.1,1.2c0,0.6,0.1,1.2,0.4,1.9c0.3,0.6,0.6,1.3,1,2l-1.1,0.5
				c-0.3-0.5-0.6-0.9-0.8-1.4c-0.3-0.5-0.5-1-0.6-1.5S229.8,82.7,229.8,82.2z M220.6,82.7h3c0-0.3-0.1-0.6-0.3-0.8
				c-0.1-0.2-0.3-0.4-0.5-0.5c-0.2-0.1-0.5-0.2-0.7-0.2c-0.3,0-0.5,0.1-0.7,0.2c-0.2,0.1-0.4,0.3-0.5,0.5
				C220.7,82.1,220.6,82.4,220.6,82.7z M222.1,86.2c-0.5,0-0.9-0.1-1.3-0.2c-0.4-0.2-0.7-0.4-1-0.7c-0.3-0.3-0.5-0.6-0.6-1
				c-0.1-0.4-0.2-0.7-0.2-1.1c0-0.6,0.1-1.1,0.4-1.5c0.3-0.5,0.6-0.8,1.1-1.1c0.5-0.3,1-0.4,1.6-0.4c0.6,0,1.2,0.1,1.6,0.4
				c0.5,0.3,0.8,0.6,1,1.1c0.2,0.5,0.4,0.9,0.4,1.5c0,0.1,0,0.2,0,0.3c0,0.1,0,0.2,0,0.2h-4.5c0,0.3,0.1,0.6,0.3,0.8
				c0.1,0.2,0.3,0.4,0.6,0.5c0.2,0.1,0.5,0.2,0.7,0.2c0.3,0,0.6-0.1,0.8-0.2c0.3-0.1,0.4-0.3,0.5-0.6l1.3,0.4
				c-0.1,0.3-0.3,0.6-0.6,0.8c-0.3,0.2-0.6,0.4-0.9,0.5C222.9,86.1,222.6,86.2,222.1,86.2z M218.1,85.8c-0.1,0.1-0.3,0.1-0.5,0.2
				s-0.4,0.1-0.6,0.2c-0.2,0-0.4,0.1-0.6,0.1c-0.3,0-0.5,0-0.8-0.1c-0.2-0.1-0.4-0.2-0.6-0.5c-0.1-0.2-0.2-0.5-0.2-0.8v-3.3h-0.8
				v-1.1h0.8v-1.9h1.5v1.9h1.2v1.1h-1.2v2.8c0,0.2,0.1,0.3,0.2,0.4c0.1,0.1,0.2,0.1,0.4,0.1s0.3,0,0.5-0.1s0.3-0.1,0.4-0.1
				L218.1,85.8z M213.1,81.5c-0.5,0-0.9,0.1-1.2,0.3c-0.4,0.2-0.6,0.4-0.8,0.7v3.5h-1.5v-5.8h1.4v1.2c0.2-0.4,0.5-0.7,0.8-0.9
				c0.3-0.2,0.7-0.4,1-0.4c0.1,0,0.1,0,0.2,0s0.1,0,0.1,0V81.5z M203.5,82.7h3c0-0.3-0.1-0.6-0.3-0.8c-0.1-0.2-0.3-0.4-0.5-0.5
				c-0.2-0.1-0.5-0.2-0.7-0.2c-0.3,0-0.5,0.1-0.7,0.2c-0.2,0.1-0.4,0.3-0.5,0.5C203.6,82.1,203.5,82.4,203.5,82.7z M205,86.2
				c-0.5,0-0.9-0.1-1.3-0.2c-0.4-0.2-0.7-0.4-1-0.7c-0.3-0.3-0.5-0.6-0.6-1c-0.1-0.4-0.2-0.7-0.2-1.1c0-0.6,0.1-1.1,0.4-1.5
				c0.3-0.5,0.6-0.8,1.1-1.1c0.5-0.3,1-0.4,1.6-0.4c0.6,0,1.2,0.1,1.6,0.4c0.5,0.3,0.8,0.6,1,1.1c0.2,0.5,0.4,0.9,0.4,1.5
				c0,0.1,0,0.2,0,0.3c0,0.1,0,0.2,0,0.2h-4.5c0,0.3,0.1,0.6,0.3,0.8c0.1,0.2,0.3,0.4,0.6,0.5c0.2,0.1,0.5,0.2,0.7,0.2
				c0.3,0,0.6-0.1,0.8-0.2c0.3-0.1,0.4-0.3,0.5-0.6l1.3,0.4c-0.1,0.3-0.3,0.6-0.6,0.8c-0.3,0.2-0.6,0.4-0.9,0.5
				C205.8,86.1,205.4,86.2,205,86.2z M197.8,86.1v-4.4h-0.8v-1.1h0.8v-0.4c0-0.5,0.1-0.9,0.2-1.2c0.2-0.4,0.4-0.6,0.7-0.8
				c0.3-0.2,0.6-0.3,1-0.3c0.2,0,0.5,0,0.7,0.1c0.2,0.1,0.5,0.1,0.7,0.3l-0.3,1.1c-0.1-0.1-0.2-0.1-0.4-0.1c-0.1,0-0.3-0.1-0.4-0.1
				c-0.3,0-0.4,0.1-0.6,0.3c-0.1,0.2-0.2,0.4-0.2,0.8v0.4h1.4v1.1h-1.4v4.4H197.8z M194.9,86.1v-4.4h-0.8v-1.1h0.8v-0.1
				c0-0.4,0.1-0.8,0.2-1.1c0.2-0.3,0.4-0.6,0.7-0.8c0.3-0.2,0.7-0.3,1.1-0.3c0.3,0,0.5,0,0.8,0.1c0.3,0.1,0.5,0.2,0.8,0.3l-0.3,1.1
				c-0.2-0.1-0.3-0.2-0.5-0.2c-0.2,0-0.3-0.1-0.5-0.1c-0.1,0-0.3,0-0.4,0.1c-0.1,0-0.2,0.1-0.3,0.2c-0.1,0.1-0.1,0.2-0.2,0.3
				c0,0.1,0,0.2,0,0.3v0.2h1.4v1.1h-1.4v4.4H194.9z M188.4,83.2c0,0.3,0.1,0.6,0.2,0.9c0.1,0.3,0.3,0.5,0.5,0.6
				c0.2,0.1,0.5,0.2,0.8,0.2c0.3,0,0.5-0.1,0.8-0.2c0.2-0.2,0.4-0.4,0.5-0.6c0.1-0.3,0.2-0.6,0.2-0.9c0-0.3-0.1-0.6-0.2-0.9
				c-0.1-0.3-0.3-0.5-0.5-0.6c-0.2-0.1-0.5-0.2-0.8-0.2c-0.3,0-0.5,0.1-0.8,0.2c-0.2,0.1-0.4,0.4-0.5,0.6
				C188.4,82.5,188.4,82.8,188.4,83.2z M189.9,86.2c-0.5,0-0.9-0.1-1.3-0.2c-0.4-0.2-0.7-0.4-1-0.7c-0.3-0.3-0.5-0.6-0.6-1
				c-0.1-0.4-0.2-0.7-0.2-1.1c0-0.4,0.1-0.8,0.2-1.2c0.1-0.4,0.3-0.7,0.6-1c0.3-0.3,0.6-0.5,1-0.7c0.4-0.2,0.8-0.2,1.3-0.2
				s0.9,0.1,1.3,0.2c0.4,0.2,0.7,0.4,1,0.7c0.3,0.3,0.5,0.6,0.6,1c0.1,0.4,0.2,0.7,0.2,1.2c0,0.4-0.1,0.8-0.2,1.1
				c-0.1,0.4-0.3,0.7-0.6,1c-0.3,0.3-0.6,0.5-1,0.7C190.8,86.1,190.4,86.2,189.9,86.2z M178.3,80.3l1.2,1.8l0.1,0.2l0.1-0.2l1.2-1.8
				h1.6l-2,2.9l2.1,2.9h-1.6l-1.3-1.8l-0.1-0.2l-0.1,0.2l-1.2,1.8h-1.6l2.1-2.9l-2-2.9H178.3z M173.8,79.4V78h1.5v1.5H173.8z
				 M173.8,86.1v-5.8h1.5v5.8H173.8z M167.6,83.2c0,0.3,0.1,0.6,0.2,0.9c0.1,0.3,0.3,0.5,0.5,0.6c0.2,0.1,0.5,0.2,0.8,0.2
				c0.3,0,0.5-0.1,0.8-0.2c0.2-0.2,0.4-0.4,0.5-0.6c0.1-0.3,0.2-0.6,0.2-0.9c0-0.3-0.1-0.6-0.2-0.9c-0.1-0.3-0.3-0.5-0.5-0.6
				c-0.2-0.1-0.5-0.2-0.8-0.2c-0.3,0-0.5,0.1-0.8,0.2c-0.2,0.1-0.4,0.4-0.5,0.6C167.6,82.5,167.6,82.8,167.6,83.2z M169.1,86.2
				c-0.5,0-0.9-0.1-1.3-0.2c-0.4-0.2-0.7-0.4-1-0.7c-0.3-0.3-0.5-0.6-0.6-1c-0.1-0.4-0.2-0.7-0.2-1.1c0-0.4,0.1-0.8,0.2-1.2
				c0.1-0.4,0.3-0.7,0.6-1c0.3-0.3,0.6-0.5,1-0.7c0.4-0.2,0.8-0.2,1.3-0.2c0.5,0,0.9,0.1,1.3,0.2c0.4,0.2,0.7,0.4,1,0.7
				c0.3,0.3,0.5,0.6,0.6,1c0.1,0.4,0.2,0.7,0.2,1.2c0,0.4-0.1,0.8-0.2,1.1c-0.1,0.4-0.3,0.7-0.6,1c-0.3,0.3-0.6,0.5-1,0.7
				C170,86.1,169.6,86.2,169.1,86.2z M164.4,86.1H163v-3.3c0-0.5-0.1-0.8-0.3-1c-0.2-0.2-0.4-0.3-0.7-0.3c-0.2,0-0.4,0.1-0.6,0.2
				c-0.2,0.1-0.4,0.2-0.5,0.4c-0.2,0.2-0.3,0.4-0.3,0.6v3.4H159V78h1.5v3.4c0.2-0.4,0.5-0.7,0.9-0.9c0.4-0.2,0.8-0.3,1.2-0.3
				c0.4,0,0.7,0.1,0.9,0.2c0.2,0.1,0.4,0.3,0.6,0.5c0.1,0.2,0.2,0.5,0.3,0.7c0.1,0.3,0.1,0.5,0.1,0.8V86.1z M154.8,86.2
				c-0.5,0-0.9-0.1-1.3-0.2c-0.4-0.2-0.7-0.4-1-0.7c-0.3-0.3-0.5-0.6-0.6-1c-0.1-0.4-0.2-0.7-0.2-1.1c0-0.5,0.1-1,0.4-1.5
				c0.3-0.5,0.6-0.8,1.1-1.1s1-0.4,1.6-0.4c0.6,0,1.2,0.1,1.6,0.4c0.5,0.3,0.8,0.6,1,1.1l-1.5,0.4c-0.1-0.2-0.3-0.4-0.5-0.5
				c-0.2-0.1-0.4-0.2-0.7-0.2c-0.3,0-0.5,0.1-0.8,0.2c-0.2,0.1-0.4,0.3-0.5,0.6c-0.1,0.3-0.2,0.6-0.2,0.9c0,0.3,0.1,0.6,0.2,0.9
				c0.1,0.3,0.3,0.5,0.6,0.6c0.2,0.1,0.5,0.2,0.8,0.2c0.2,0,0.3,0,0.5-0.1c0.2-0.1,0.3-0.1,0.4-0.2c0.1-0.1,0.2-0.2,0.3-0.4l1.5,0.4
				c-0.1,0.3-0.3,0.5-0.6,0.8c-0.3,0.2-0.6,0.4-0.9,0.5C155.6,86.1,155.2,86.2,154.8,86.2z M141.2,83.9v-3.6h1.5v3.3
				c0,0.4,0.1,0.8,0.2,1c0.2,0.2,0.4,0.3,0.7,0.3c0.2,0,0.4,0,0.6-0.1c0.2-0.1,0.4-0.2,0.5-0.4c0.2-0.2,0.3-0.4,0.4-0.6v-3.6h1.5
				v4.2c0,0.2,0,0.3,0.1,0.3c0.1,0.1,0.2,0.1,0.3,0.1v1.2c-0.1,0-0.3,0-0.4,0c-0.1,0-0.2,0-0.3,0c-0.3,0-0.5-0.1-0.7-0.2
				c-0.2-0.1-0.3-0.3-0.3-0.5l0-0.5c-0.3,0.4-0.6,0.7-1,0.9c-0.4,0.2-0.9,0.3-1.3,0.3c-0.6,0-1.1-0.2-1.4-0.6
				C141.3,85.2,141.2,84.6,141.2,83.9z M137.4,84.7c0.1-0.1,0.1-0.2,0.2-0.3c0.1-0.1,0.1-0.2,0.1-0.2v-0.6c-0.2-0.1-0.4-0.1-0.6-0.2
				c-0.2,0-0.4-0.1-0.6-0.1c-0.4,0-0.7,0.1-1,0.3c-0.2,0.2-0.4,0.4-0.4,0.7c0,0.1,0,0.3,0.1,0.4s0.2,0.2,0.4,0.3
				c0.2,0.1,0.3,0.1,0.6,0.1c0.2,0,0.4,0,0.7-0.1C137.1,84.9,137.3,84.8,137.4,84.7z M133.8,84.4c0-0.4,0.1-0.7,0.3-1
				c0.2-0.3,0.5-0.5,0.9-0.7s0.8-0.2,1.3-0.2c0.2,0,0.5,0,0.7,0.1c0.3,0,0.5,0.1,0.7,0.2v-0.3c0-0.4-0.1-0.7-0.3-0.9
				c-0.2-0.2-0.5-0.3-1-0.3c-0.3,0-0.6,0.1-0.9,0.2c-0.3,0.1-0.6,0.3-0.9,0.5l-0.5-1c0.4-0.3,0.8-0.4,1.2-0.6
				c0.4-0.1,0.8-0.2,1.3-0.2c0.8,0,1.5,0.2,1.9,0.6c0.5,0.4,0.7,1,0.7,1.8v1.9c0,0.2,0,0.3,0.1,0.3c0.1,0.1,0.2,0.1,0.3,0.1v1.2
				c-0.1,0-0.3,0-0.4,0.1c-0.1,0-0.2,0-0.3,0c-0.3,0-0.5-0.1-0.7-0.2c-0.1-0.1-0.2-0.3-0.3-0.5l0-0.3c-0.3,0.3-0.6,0.6-0.9,0.8
				c-0.4,0.2-0.8,0.3-1.2,0.3c-0.4,0-0.7-0.1-1-0.2c-0.3-0.2-0.5-0.4-0.7-0.7C133.9,85,133.8,84.7,133.8,84.4z M128.9,86.1h-1.5
				v-3.3c0-0.5-0.1-0.8-0.2-1c-0.2-0.2-0.4-0.3-0.7-0.3c-0.2,0-0.4,0.1-0.6,0.2c-0.2,0.1-0.4,0.2-0.5,0.4c-0.2,0.2-0.3,0.4-0.4,0.6
				v3.4h-1.5v-5.8h1.3v1.1c0.1-0.3,0.3-0.5,0.6-0.6c0.2-0.2,0.5-0.3,0.8-0.4c0.3-0.1,0.6-0.1,1-0.1c0.4,0,0.7,0.1,0.9,0.2
				c0.2,0.1,0.4,0.3,0.5,0.5c0.1,0.2,0.2,0.5,0.3,0.7c0.1,0.3,0.1,0.6,0.1,0.8V86.1z M117.2,83.2c0,0.3,0.1,0.6,0.2,0.9
				c0.1,0.3,0.3,0.5,0.5,0.6c0.2,0.1,0.5,0.2,0.8,0.2c0.3,0,0.5-0.1,0.8-0.2c0.2-0.2,0.4-0.4,0.5-0.6c0.1-0.3,0.2-0.6,0.2-0.9
				c0-0.3-0.1-0.6-0.2-0.9c-0.1-0.3-0.3-0.5-0.5-0.6c-0.2-0.1-0.5-0.2-0.8-0.2c-0.3,0-0.5,0.1-0.8,0.2c-0.2,0.1-0.4,0.4-0.5,0.6
				C117.3,82.5,117.2,82.8,117.2,83.2z M118.7,86.2c-0.5,0-0.9-0.1-1.3-0.2c-0.4-0.2-0.7-0.4-1-0.7c-0.3-0.3-0.5-0.6-0.6-1
				c-0.1-0.4-0.2-0.7-0.2-1.1c0-0.4,0.1-0.8,0.2-1.2c0.1-0.4,0.3-0.7,0.6-1c0.3-0.3,0.6-0.5,1-0.7c0.4-0.2,0.8-0.2,1.3-0.2
				c0.5,0,0.9,0.1,1.3,0.2c0.4,0.2,0.7,0.4,1,0.7c0.3,0.3,0.5,0.6,0.6,1c0.1,0.4,0.2,0.7,0.2,1.2c0,0.4-0.1,0.8-0.2,1.1
				c-0.1,0.4-0.3,0.7-0.6,1c-0.3,0.3-0.6,0.5-1,0.7C119.6,86.1,119.2,86.2,118.7,86.2z M112,86.2c-0.5,0-1-0.1-1.4-0.2
				s-0.8-0.4-1.2-0.7l0.5-1c0.3,0.3,0.7,0.5,1,0.6c0.3,0.1,0.7,0.2,1,0.2c0.3,0,0.5-0.1,0.7-0.2c0.2-0.1,0.3-0.3,0.3-0.5
				c0-0.1,0-0.2-0.1-0.3c-0.1-0.1-0.2-0.2-0.4-0.2c-0.2-0.1-0.4-0.1-0.7-0.2c-0.4-0.1-0.8-0.3-1.1-0.4c-0.3-0.1-0.5-0.3-0.7-0.5
				c-0.1-0.2-0.2-0.5-0.2-0.8c0-0.4,0.1-0.7,0.3-1c0.2-0.3,0.5-0.5,0.8-0.7c0.4-0.2,0.8-0.2,1.2-0.2c0.4,0,0.8,0.1,1.2,0.2
				c0.4,0.1,0.7,0.3,1,0.6l-0.6,0.9c-0.3-0.2-0.6-0.4-0.8-0.5c-0.3-0.1-0.5-0.2-0.8-0.2c-0.2,0-0.3,0-0.4,0.1
				c-0.1,0-0.2,0.1-0.3,0.2c-0.1,0.1-0.1,0.2-0.1,0.4c0,0.1,0,0.3,0.1,0.3c0.1,0.1,0.2,0.1,0.4,0.2c0.2,0.1,0.4,0.1,0.6,0.2
				c0.5,0.1,0.9,0.3,1.2,0.4c0.3,0.1,0.6,0.3,0.7,0.5c0.2,0.2,0.2,0.5,0.2,0.8c0,0.6-0.2,1-0.6,1.4C113.3,86,112.8,86.2,112,86.2z
				 M105.9,86.2c-0.5,0-1-0.1-1.4-0.2s-0.8-0.4-1.2-0.7l0.5-1c0.3,0.3,0.7,0.5,1,0.6c0.3,0.1,0.7,0.2,1,0.2c0.3,0,0.5-0.1,0.7-0.2
				c0.2-0.1,0.3-0.3,0.3-0.5c0-0.1,0-0.2-0.1-0.3c-0.1-0.1-0.2-0.2-0.4-0.2c-0.2-0.1-0.4-0.1-0.7-0.2c-0.4-0.1-0.8-0.3-1.1-0.4
				c-0.3-0.1-0.5-0.3-0.7-0.5c-0.1-0.2-0.2-0.5-0.2-0.8c0-0.4,0.1-0.7,0.3-1c0.2-0.3,0.5-0.5,0.8-0.7c0.4-0.2,0.8-0.2,1.2-0.2
				c0.4,0,0.8,0.1,1.2,0.2c0.4,0.1,0.7,0.3,1,0.6l-0.6,0.9c-0.3-0.2-0.6-0.4-0.8-0.5c-0.3-0.1-0.5-0.2-0.8-0.2c-0.2,0-0.3,0-0.4,0.1
				c-0.1,0-0.2,0.1-0.3,0.2c-0.1,0.1-0.1,0.2-0.1,0.4c0,0.1,0,0.3,0.1,0.3c0.1,0.1,0.2,0.1,0.4,0.2c0.2,0.1,0.4,0.1,0.6,0.2
				c0.5,0.1,0.9,0.3,1.2,0.4c0.3,0.1,0.6,0.3,0.7,0.5c0.2,0.2,0.2,0.5,0.2,0.8c0,0.6-0.2,1-0.6,1.4C107.2,86,106.6,86.2,105.9,86.2z
				 M100.2,79.4V78h1.5v1.5H100.2z M100.2,86.1v-5.8h1.5v5.8H100.2z M94,83.2c0,0.3,0.1,0.6,0.2,0.9c0.1,0.3,0.3,0.5,0.5,0.6
				c0.2,0.1,0.5,0.2,0.8,0.2c0.3,0,0.5-0.1,0.8-0.2c0.2-0.2,0.4-0.4,0.5-0.6c0.1-0.3,0.2-0.6,0.2-0.9c0-0.3-0.1-0.6-0.2-0.9
				c-0.1-0.3-0.3-0.5-0.5-0.6c-0.2-0.1-0.5-0.2-0.8-0.2c-0.3,0-0.5,0.1-0.8,0.2c-0.2,0.1-0.4,0.4-0.5,0.6C94.1,82.5,94,82.8,94,83.2
				z M95.5,86.2c-0.5,0-0.9-0.1-1.3-0.2c-0.4-0.2-0.7-0.4-1-0.7c-0.3-0.3-0.5-0.6-0.6-1c-0.1-0.4-0.2-0.7-0.2-1.1
				c0-0.4,0.1-0.8,0.2-1.2c0.1-0.4,0.3-0.7,0.6-1c0.3-0.3,0.6-0.5,1-0.7c0.4-0.2,0.8-0.2,1.3-0.2c0.5,0,0.9,0.1,1.3,0.2
				c0.4,0.2,0.7,0.4,1,0.7c0.3,0.3,0.5,0.6,0.6,1c0.1,0.4,0.2,0.7,0.2,1.2c0,0.4-0.1,0.8-0.2,1.1c-0.1,0.4-0.3,0.7-0.6,1
				c-0.3,0.3-0.6,0.5-1,0.7C96.4,86.1,96,86.2,95.5,86.2z M88,84.9c0.2,0,0.5,0,0.6-0.1c0.2-0.1,0.4-0.2,0.5-0.4
				c0.1-0.2,0.3-0.3,0.3-0.5c0.1-0.2,0.1-0.4,0.1-0.7c0-0.3-0.1-0.6-0.2-0.9c-0.1-0.3-0.3-0.5-0.5-0.7c-0.2-0.2-0.5-0.2-0.8-0.2
				c-0.2,0-0.4,0.1-0.6,0.2c-0.2,0.1-0.4,0.2-0.5,0.4c-0.1,0.2-0.3,0.4-0.4,0.6v1.4c0,0.1,0.1,0.3,0.2,0.4c0.1,0.1,0.2,0.2,0.4,0.3
				c0.1,0.1,0.3,0.1,0.4,0.2C87.7,84.9,87.9,84.9,88,84.9z M88.4,86.2c-0.4,0-0.8-0.1-1.2-0.3c-0.3-0.2-0.6-0.5-0.8-0.8v1h-1.3V78
				h1.5v3.3c0.2-0.3,0.5-0.6,0.8-0.8c0.3-0.2,0.7-0.3,1.2-0.3c0.4,0,0.7,0.1,1,0.2c0.3,0.2,0.6,0.4,0.8,0.7c0.2,0.3,0.4,0.6,0.5,1
				c0.1,0.4,0.2,0.8,0.2,1.2S91.1,84,91,84.4c-0.1,0.4-0.3,0.7-0.6,1c-0.2,0.3-0.5,0.5-0.9,0.6C89.2,86.1,88.8,86.2,88.4,86.2z
				 M75.7,82.7h3c0-0.3-0.1-0.6-0.3-0.8c-0.1-0.2-0.3-0.4-0.5-0.5c-0.2-0.1-0.5-0.2-0.7-0.2c-0.3,0-0.5,0.1-0.7,0.2
				c-0.2,0.1-0.4,0.3-0.5,0.5C75.8,82.1,75.7,82.4,75.7,82.7z M77.2,86.2c-0.5,0-0.9-0.1-1.3-0.2c-0.4-0.2-0.7-0.4-1-0.7
				c-0.3-0.3-0.5-0.6-0.6-1c-0.1-0.4-0.2-0.7-0.2-1.1c0-0.6,0.1-1.1,0.4-1.5c0.3-0.5,0.6-0.8,1.1-1.1c0.5-0.3,1-0.4,1.6-0.4
				c0.6,0,1.2,0.1,1.6,0.4c0.5,0.3,0.8,0.6,1,1.1c0.2,0.5,0.4,0.9,0.4,1.5c0,0.1,0,0.2,0,0.3c0,0.1,0,0.2,0,0.2h-4.5
				c0,0.3,0.1,0.6,0.3,0.8c0.1,0.2,0.3,0.4,0.6,0.5c0.2,0.1,0.5,0.2,0.7,0.2c0.3,0,0.6-0.1,0.8-0.2c0.3-0.1,0.4-0.3,0.5-0.6l1.3,0.4
				c-0.1,0.3-0.3,0.6-0.6,0.8c-0.3,0.2-0.6,0.4-0.9,0.5C78,86.1,77.6,86.2,77.2,86.2z M72.5,86.1H71v-3.3c0-0.5-0.1-0.8-0.2-1
				s-0.4-0.3-0.7-0.3c-0.2,0-0.4,0.1-0.6,0.2c-0.2,0.1-0.4,0.2-0.5,0.4c-0.2,0.2-0.3,0.4-0.4,0.6v3.4h-1.5v-5.8h1.3v1.1
				c0.1-0.3,0.3-0.5,0.6-0.6c0.2-0.2,0.5-0.3,0.8-0.4c0.3-0.1,0.6-0.1,1-0.1c0.4,0,0.7,0.1,0.9,0.2c0.2,0.1,0.4,0.3,0.5,0.5
				c0.1,0.2,0.2,0.5,0.3,0.7c0.1,0.3,0.1,0.6,0.1,0.8V86.1z M61.7,86.1c-0.6,0-1.2-0.1-1.6-0.3c-0.4-0.2-0.8-0.5-1.1-0.9
				c-0.3-0.4-0.5-0.8-0.6-1.3c-0.1-0.5-0.2-1-0.2-1.5v-4h1.5v4c0,0.3,0,0.6,0.1,1c0.1,0.3,0.2,0.6,0.3,0.8c0.1,0.2,0.3,0.4,0.6,0.6
				c0.2,0.1,0.5,0.2,0.9,0.2c0.4,0,0.7-0.1,0.9-0.2c0.3-0.1,0.4-0.3,0.6-0.6c0.1-0.2,0.3-0.5,0.3-0.8c0.1-0.3,0.1-0.6,0.1-0.9v-4
				h1.5v4c0,0.5-0.1,1-0.2,1.5c-0.1,0.5-0.3,0.9-0.6,1.3c-0.3,0.4-0.6,0.6-1.1,0.8C62.8,86,62.3,86.1,61.7,86.1z"/>
			<g style="clip-path:url(#SVGID_00000131351367547928994140000007817480154163366292_);">
				<defs>
					<path id="SVGID_00000013897934642289182620000006322803839056924604_" d="M41.5,139.1c0-11,9-20,20-20h320c11,0,20,9,20,20v57
						c0,11-9,20-20,20h-320c-11,0-20-9-20-20V139.1z"/>
				</defs>
				<clipPath id="SVGID_00000138539779627592905570000014774667910338834565_">
					<use xlink:href="#SVGID_00000013897934642289182620000006322803839056924604_"  style="overflow:visible;"/>
				</clipPath>
				<g style="clip-path:url(#SVGID_00000138539779627592905570000014774667910338834565_);">
					<defs>
						<rect id="SVGID_00000036242271667596771720000014673633921847116168_" x="41.5" y="66.3" width="360" height="202.5"/>
					</defs>
					<clipPath id="SVGID_00000174591192155792441590000002233141838110317237_">
						<use xlink:href="#SVGID_00000036242271667596771720000014673633921847116168_"  style="overflow:visible;"/>
					</clipPath>
					<g style="clip-path:url(#SVGID_00000174591192155792441590000002233141838110317237_);">
						
							<image style="overflow:visible;" width="1360" height="765" xlink:href="4B224A29C2625D5F.png"  transform="matrix(0.2647 0 0 0.2647 41.5254 66.3276)">
						</image>
					</g>
				</g>
			</g>
			<defs>
				
					<filter id="Adobe_OpacityMaskFilter_00000052068660585248345530000005449425874588684729_" filterUnits="userSpaceOnUse" x="41.5" y="119" width="360.2" height="97.2">
					<feColorMatrix  type="matrix" values="1 0 0 0 0  0 1 0 0 0  0 0 1 0 0  0 0 0 1 0"/>
				</filter>
			</defs>
			
				<mask maskUnits="userSpaceOnUse" x="41.5" y="119" width="360.2" height="97.2" id="SVGID_00000080906097910772720130000001315223028454876351_">
				<g style="filter:url(#Adobe_OpacityMaskFilter_00000052068660585248345530000005449425874588684729_);">
					<g>
						<g>
							<defs>
								<path id="SVGID_00000131340315622049379910000014624293839255975043_" d="M41.5,139.1c0-11,9-20,20-20h320c11,0,20,9,20,20
									v57c0,11-9,20-20,20h-320c-11,0-20-9-20-20V139.1z"/>
							</defs>
							
								<clipPath id="SVGID_00000039104148445724993790000014511263750928584603_" style="clip-path:url(#SVGID_00000131351367547928994140000007817480154163366292_);">
								<use xlink:href="#SVGID_00000131340315622049379910000014624293839255975043_"  style="overflow:visible;"/>
							</clipPath>
							<g style="clip-path:url(#SVGID_00000039104148445724993790000014511263750928584603_);">
								
									<image style="overflow:visible;" width="1501" height="405" xlink:href="4B224A29C2625D52.jpg"  transform="matrix(0.24 0 0 0.24 41.4991 118.9627)">
								</image>
							</g>
						</g>
					</g>
				</g>
			</mask>
			
				<g style="clip-path:url(#SVGID_00000131351367547928994140000007817480154163366292_);mask:url(#SVGID_00000080906097910772720130000001315223028454876351_);">
				<defs>
					
						<filter id="Adobe_OpacityMaskFilter_00000157309678244026672570000003663027653249002919_" filterUnits="userSpaceOnUse" x="41.5" y="119" width="360.2" height="97.2">
						<feColorMatrix  type="matrix" values="1 0 0 0 0  0 1 0 0 0  0 0 1 0 0  0 0 0 1 0"/>
					</filter>
				</defs>
				
					<mask maskUnits="userSpaceOnUse" x="41.5" y="119" width="360.2" height="97.2" id="SVGID_00000080906097910772720130000001315223028454876351_">
					<g style="filter:url(#Adobe_OpacityMaskFilter_00000157309678244026672570000003663027653249002919_);">
						<rect x="40.5" y="118.1" width="362" height="99"/>
						<g class="st11">
							<g>
								<defs>
									<path id="SVGID_00000034073099773360500030000012227631561728605316_" d="M41.5,139.1c0-11,9-20,20-20h320c11,0,20,9,20,20
										v57c0,11-9,20-20,20h-320c-11,0-20-9-20-20V139.1z"/>
								</defs>
								<clipPath id="SVGID_00000100341795381680182150000006123186102798444192_">
									<use xlink:href="#SVGID_00000034073099773360500030000012227631561728605316_"  style="overflow:visible;"/>
								</clipPath>
								<g style="clip-path:url(#SVGID_00000100341795381680182150000006123186102798444192_);">
									
										<image style="overflow:visible;" width="1501" height="405" xlink:href="4B224A29C2625D51.jpg"  transform="matrix(0.24 0 0 0.24 41.4991 118.9627)">
									</image>
								</g>
							</g>
						</g>
					</g>
				</mask>
				<g>
					<g>
						<defs>
							<path id="SVGID_00000016763372565141150310000015702976326697185159_" d="M41.5,139.1c0-11,9-20,20-20h320c11,0,20,9,20,20
								v57c0,11-9,20-20,20h-320c-11,0-20-9-20-20V139.1z"/>
						</defs>
						<clipPath id="SVGID_00000011003335172057367240000012542831674334339723_">
							<use xlink:href="#SVGID_00000016763372565141150310000015702976326697185159_"  style="overflow:visible;"/>
						</clipPath>
						<defs>
							
								<filter id="Adobe_OpacityMaskFilter_00000005969940427762651390000006611932947405700491_" filterUnits="userSpaceOnUse" x="41.5" y="119" width="360.2" height="97.2">
								<feColorMatrix  type="matrix" values="1 0 0 0 0  0 1 0 0 0  0 0 1 0 0  0 0 0 1 0"/>
							</filter>
						</defs>
						
							<mask maskUnits="userSpaceOnUse" x="41.5" y="119" width="360.2" height="97.2" id="SVGID_00000080906097910772720130000001315223028454876351_">
							<g style="filter:url(#Adobe_OpacityMaskFilter_00000005969940427762651390000006611932947405700491_);">
								<g>
									<defs>
										<path id="SVGID_00000175321742961391849160000014618460582076130978_" d="M41.5,139.1c0-11,9-20,20-20h320
											c11,0,20,9,20,20v57c0,11-9,20-20,20h-320c-11,0-20-9-20-20V139.1z"/>
									</defs>
									
										<clipPath id="SVGID_00000021081830899821982370000003361107339221279377_" style="clip-path:url(#SVGID_00000011003335172057367240000012542831674334339723_);">
										<use xlink:href="#SVGID_00000175321742961391849160000014618460582076130978_"  style="overflow:visible;"/>
									</clipPath>
									<g style="clip-path:url(#SVGID_00000021081830899821982370000003361107339221279377_);">
										
											<image style="overflow:visible;" width="1501" height="405" xlink:href="4B224A29C2625D56.jpg"  transform="matrix(0.24 0 0 0.24 41.4991 118.9627)">
										</image>
									</g>
								</g>
							</g>
						</mask>
						<g style="clip-path:url(#SVGID_00000011003335172057367240000012542831674334339723_);">
							
								<image style="overflow:visible;" width="1501" height="405" xlink:href="DBF4B80918377D5E.jpg"  transform="matrix(0.24 0 0 0.24 41.4991 118.9627)">
							</image>
						</g>
					</g>
				</g>
			</g>
			<g style="clip-path:url(#SVGID_00000131351367547928994140000007817480154163366292_);">
				<defs>
					<path id="SVGID_00000088835713714010185120000012181017272450068401_" d="M41.5,252.1c0-11,9-20,20-20h320c11,0,20,9,20,20v57
						c0,11-9,20-20,20h-320c-11,0-20-9-20-20V252.1z"/>
				</defs>
				<clipPath id="SVGID_00000086678693377195095860000005672719069311012502_">
					<use xlink:href="#SVGID_00000088835713714010185120000012181017272450068401_"  style="overflow:visible;"/>
				</clipPath>
				<g style="clip-path:url(#SVGID_00000086678693377195095860000005672719069311012502_);">
					<defs>
						<rect id="SVGID_00000060720428856001290110000008046803003985736595_" x="41.5" y="55.6" width="360" height="450"/>
					</defs>
					<clipPath id="SVGID_00000080164765530701421540000016324217626758118312_">
						<use xlink:href="#SVGID_00000060720428856001290110000008046803003985736595_"  style="overflow:visible;"/>
					</clipPath>
					<g style="clip-path:url(#SVGID_00000080164765530701421540000016324217626758118312_);">
						
							<image style="overflow:visible;" width="1440" height="1800" xlink:href="DBF4B80918377D5E.png"  transform="matrix(0.25 0 0 0.25 41.5254 55.5776)">
						</image>
					</g>
				</g>
			</g>
		</g>
	</g>
</g>
</svg>
